<svg xmlns="http://www.w3.org/2000/svg" viewBox="0 0 80 80"><defs><style>.cls-1{fill:#000091;stroke-miterlimit:10;stroke-width:0.25px;}.cls-1,.cls-2{stroke:#fff;}.cls-2{fill:none;stroke-linecap:round;stroke-linejoin:round;stroke-width:0.23px;}</style></defs><g id="Calque_6" data-name="Calque 6"><polygon class="cls-1" points="43.86 19.19 43.5 18.79 43.12 18.79 43.12 18.79 43.12 18.22 43.87 18.32 44.29 17.98 44.56 18.55 44.56 19.57 44.56 19.59 44.2 19.19 43.86 19.19"/><polyline class="cls-1" points="43.12 19.6 43.81 19.52 43.86 19.19 43.5 18.79 43.04 18.79 42.52 19.01 42.52 19.29 43.12 19.6"/><polyline class="cls-1" points="43.11 20.18 44.2 20.29 44.56 19.93 44.56 19.59 44.56 19.59 44.2 19.19 43.86 19.19 43.81 19.51 43.12 19.59 43.12 20.18"/><polygon class="cls-1" points="43.11 20.18 42.37 19.85 42.16 19.37 42.44 18.59 43.12 18.22 43.12 18.79 43.13 18.79 43.04 18.79 42.52 19.01 42.52 19.29 43.12 19.59 43.12 20.18 43.11 20.18"/><polyline class="cls-1" points="43.39 23.44 44.19 24.28 43.82 25.09 45.01 25.09 45.3 24.81 45.66 25.17 46.39 24.77 46.53 24.43 46.82 24.42 46.82 23.11 49 23.11 49 21.85 49.63 21.16 49.25 20.8 49.15 19.13 47.29 17.12 45.2 17.41 44.57 17.17 44.3 17.98 44.57 18.56 44.57 19.94 43.96 20.55 43.96 22.47 44.27 22.78 43.45 23.44"/><polyline class="cls-1" points="40.98 22.59 41.26 21.49 41.58 21.17 41.36 20.71 42.37 19.85 42.16 19.37 42.44 18.59 41.78 17.89 40.57 17.75 39.29 17.45 38.38 17.45 38.81 18.47 39.06 19.61 39.06 20.46 40.38 22.54 40.98 22.59"/><polyline class="cls-1" points="40.98 22.6 41.26 21.5 41.58 21.18 41.36 20.72 42.38 19.85 42.38 19.85 43.11 20.2 44.21 20.3 44.21 20.31 43.96 20.55 43.96 22.47 44.27 22.78 43.45 23.44 43.39 23.44 42.42 23.46 41.23 23.87 40.98 22.6"/><polyline class="cls-1" points="39.31 17.45 40.58 17.75 41.79 17.9 42.45 18.6 43.14 18.22 43.89 18.33 44.31 17.98 44.58 17.16 43.32 16.55 41.95 16.55 41.72 16.31 40.81 16.63 40.08 16.63 39.7 15.95 39.31 17.45"/><g id="_62_-_copie" data-name="62 - copie"><g id="_59_-_copie_2" data-name="59 - copie 2"><polygon class="cls-1" points="39.27 2.68 41.95 1.6 42.56 3.34 43.47 3.57 43.21 4.18 45.24 4.94 45.39 4.5 45.81 4.66 45.59 5.48 47.01 6.22 46.52 6.63 46.88 7.65 47.52 7.97 47.19 9.47 47.19 9.47 45.96 9.68 45.05 9.03 43.42 8.99 43.45 8.02 41.95 8.15 40.9 7.18 39.03 6.46 39.27 2.68"/></g></g><polyline class="cls-1" points="47.52 9.77 50.56 9.42 52.9 9.99 53.3 11.68 52.46 12.64 52.21 14.92 50.23 15.22 50.43 16.68 50.25 17.94 49.16 19.13 47.3 17.12 46.63 15.32 47.52 14.38 47.27 12.18 47.06 10.99 47.52 10.44 47.52 9.77"/><g id="_59_-_copie" data-name="59 - copie"><polygon class="cls-1" points="38.94 8.02 38.28 9.19 40.03 11.68 41.61 12.39 43.66 12.69 44.92 13.26 46.15 12.35 47.27 12.18 47.06 10.99 47.52 10.44 47.52 9.77 47.19 9.47 45.96 9.68 45.05 9.03 43.42 8.99 43.45 8.02 41.95 8.15 40.9 7.18 39.03 6.46 38.94 8.02"/></g><g id="_59_-_copie_3" data-name="59 - copie 3"><polygon class="cls-1" points="44.25 0.93 41.95 1.6 42.56 3.34 43.47 3.57 43.21 4.18 45.24 4.94 45.39 4.5 45.81 4.66 45.59 5.48 47.01 6.22 46.52 6.63 46.88 7.65 47.52 7.97 47.19 9.47 47.52 9.77 50.56 9.42 52.9 9.99 52.9 7.58 52.01 6.95 50.59 6.91 50.09 7.08 50.05 6 48.99 5.46 48.14 5.57 47.9 4.14 47.38 3.36 46.45 3.58 46.11 4.12 45.31 3.23 44.51 2.6 44.77 2.14 44.25 0.93"/></g><g id="_02_ok_-_copie" data-name="02 ok - copie"><polyline class="cls-1" points="56.46 8.67 56.01 8.67 55.46 9.77 54.39 10.27 52.9 9.99 53.3 11.68 52.46 12.64 52.24 14.65 53.1 14.7 54.59 15.61 57.32 15.86 57.78 14.61 57.83 13.14 58.91 13.2 59.29 12.55 58.1 11.66 56.61 11.22 56.28 9.99 56.43 8.67"/></g><polygon class="cls-1" points="49.26 20.8 50.2 21.7 51.26 21.8 52.7 20.37 53.87 20.37 53.87 21.06 54.41 21.58 56.24 21.58 57.45 20.33 57.45 19.82 56.85 19.22 56.85 18.37 57.43 17.8 57.45 15.86 57.32 15.86 54.59 15.61 53.1 14.7 52.24 14.65 52.21 14.92 50.23 15.22 50.43 16.68 50.25 17.94 49.16 19.13 49.26 20.8"/><polygon class="cls-1" points="59.29 12.55 59.77 13.03 59.77 14.48 60.81 14.14 61.46 14.78 61.46 16.62 61.77 17.31 61.77 19.21 61.59 20 61.59 21.73 60.06 22.37 57.45 20.9 57.45 20.33 57.45 19.82 56.85 19.22 56.85 18.37 57.43 17.8 57.45 15.86 57.32 15.86 57.78 14.61 57.83 13.14 58.91 13.2 59.29 12.55"/><polygon class="cls-1" points="62.44 21.73 62.82 22.81 63.77 22.81 66.27 21.8 67.69 22.3 68.98 21.17 68.07 20.26 65.43 19.14 64.94 19.14 64.56 18.76 64.56 17.93 63.55 17.93 62.81 17.18 62.73 15.21 62.31 14.8 62.31 13.61 61.35 13.01 59.77 13.5 59.77 14.48 60.81 14.14 61.46 14.78 61.46 16.62 61.77 17.31 61.77 19.21 61.59 20 61.59 21.73 62.44 21.73"/><polygon class="cls-1" points="34.96 24.58 35.25 24.88 34.95 26.59 33.6 28.54 32.57 28.91 32.57 29.5 31.41 29.06 31.1 29.38 29.91 28.68 29.38 28.68 29.01 28.32 28.34 28.31 27.94 27.3 28.23 26.4 28.78 26.4 28.51 25.52 29.03 25.52 29.03 24.63 29.63 24.27 29.63 22.97 30.2 22.97 30.99 22.97 31.96 22 32.6 22.54 32.59 23.29 33.57 24.05 33.87 24.05 34.4 24.59 34.96 24.58"/><polygon class="cls-1" points="41.23 23.91 40.97 24.85 40.48 25.47 39.41 25.47 38.33 26.05 38.33 26.33 37.48 26.45 36.5 25.88 36.5 25.41 35.79 25.41 35.25 24.88 34.96 24.58 34.96 24.29 34.58 23.44 34.86 23.16 35.32 23.09 35.84 22.57 35.84 21.53 34.94 20.61 36.7 19.78 37.8 19.78 38.82 18.48 39.07 19.62 39.07 20.47 40.4 22.55 40.99 22.6 41.24 23.87 41.23 23.91"/><polygon class="cls-1" points="19.76 20.61 19.37 20.29 19.16 20.29 18.91 20.54 19.73 20.95 19.98 21.17 20.22 21.37 19.78 22.1 19.78 23.33 18.73 23.29 18.02 24.24 18.02 25.52 18.58 25.54 19.03 26.11 18.73 26.49 18.73 28.45 20.12 27.88 21.17 27.88 22.46 26.94 23.56 27.5 24.13 25.81 24.84 25.81 24.47 23.52 24.77 23.13 24.75 21.71 23.79 21.28 22.96 21.93 22.35 21.54 22.13 20.6 20.68 20.57 20.68 19.84 20.06 19.84 19.76 20.06 19.76 20.61"/><polygon class="cls-1" points="32.35 14.27 31.54 14.44 30.54 15.43 29.34 15.43 28.78 14.86 26.66 14.86 25.86 14.4 25 14.4 24.75 14.65 24.75 15.46 25.37 16.09 25.75 16.09 25.75 16.45 26.08 16.78 26.08 17.37 25.36 18.08 24.98 18.08 24.98 18.52 24.49 19.01 24.85 19.37 25.46 19.37 26.03 19.68 26.83 18.85 29.2 18.85 29.71 19.29 31.02 18.33 32.87 18.33 32.87 16.31 32.35 15.73 32.35 14.27"/><polygon class="cls-1" points="26.03 19.68 26.55 20.28 26.54 20.94 25.77 21.7 24.77 21.71 23.8 21.28 22.98 21.93 22.37 21.54 22.14 20.6 23.1 20.6 23.1 20.21 22.14 19.54 22.14 17.27 22.14 15.7 21.2 14.4 20.78 12.99 20.99 12.78 20.99 12.28 20.61 11.9 20.61 11.47 20.98 11.47 22.3 12.23 23.35 11.82 23.84 11.82 24.29 12.17 23.86 13.13 24.75 14.65 24.75 15.46 25.37 16.09 25.75 16.09 25.75 16.45 26.08 16.78 26.08 17.37 25.36 18.08 24.98 18.08 24.98 18.52 24.49 19.01 24.85 19.37 25.46 19.37 26.03 19.68"/><polygon class="cls-1" points="34.96 20.61 35.86 21.53 35.86 22.57 35.34 23.09 34.88 23.16 34.6 23.44 34.98 24.29 34.98 24.58 34.42 24.59 33.89 24.05 33.59 24.05 32.61 23.29 32.61 22.54 31.98 22 31.01 22.97 30.21 22.97 29.68 22.25 29.68 21.38 29.26 21.38 29.17 21.8 27.79 21.8 27.11 22.19 27.11 21.8 26.38 22.18 25.77 21.7 26.54 20.94 26.55 20.28 26.03 19.68 26.83 18.85 29.2 18.85 29.71 19.29 31.02 18.33 32.87 18.33 32.87 18.69 33.84 18.71 33.85 19.27 34.75 19.84 34.96 20.61"/><polyline class="cls-1" points="39.81 14.75 40.05 11.71 38.3 9.22 36.65 10.42 33.86 10.91 31.67 12.15 31.2 13.86 32.35 14.3 32.84 14.3 33.38 13.97 33.98 14.57 35.01 14.57 35.59 14.92 35.59 15.59 36.02 15.98 36.94 15.06 37.54 15.06 38.2 14.3 39.38 14.67 39.81 14.67"/><polygon class="cls-1" points="39.81 14.65 39.38 14.65 38.2 14.27 37.54 15.03 36.94 15.03 36.02 15.95 35.59 15.56 35.59 14.89 35.01 14.55 33.98 14.55 33.38 13.95 32.84 14.27 32.35 14.27 32.35 15.73 32.87 16.3 32.87 18.69 33.84 18.71 33.85 19.27 34.75 19.84 34.96 20.61 36.72 19.78 37.82 19.78 38.84 18.48 38.41 17.46 39.33 17.46 39.72 15.95 40.35 15.95 39.81 14.73 39.81 14.65"/><polygon class="cls-1" points="47.3 17.12 45.21 17.41 43.32 16.56 41.95 16.56 41.72 16.32 40.81 16.63 40.08 16.63 39.7 15.95 40.33 15.95 39.79 14.73 40.03 11.68 41.61 12.39 43.66 12.69 44.92 13.26 46.15 12.35 47.27 12.18 47.52 14.38 46.63 15.32 47.3 17.12"/><polyline class="cls-1" points="67.91 71.44 72.08 74.52 73.14 74.52 73.17 74.25 73.92 72.81 73.32 68.81 72.76 65.58 71.95 65.58 71.95 68.21 71.32 68.04 70.61 68.04 67.91 70.42 67.91 71.44"/><polyline class="cls-1" points="67.91 71.44 72.08 74.52 73.14 74.52 72.57 78.92 72.55 79.07 71.56 78.88 69.56 77.3 70.05 76.53 68.83 76.32 69.21 74.74 68.44 74.56 68.61 73.3 67.91 72.91 67.91 71.44"/><polygon class="cls-1" points="46.4 24.77 47.48 25.87 47.48 26.52 46.74 27.09 46.96 27.31 46.96 27.77 45.99 28.31 46.53 29.06 46.53 29.62 46.09 30.06 44.96 30.1 43.78 29.28 43.36 29.5 42.46 28.73 41.36 28.73 41.1 28.89 40.52 28.74 40.16 29.06 39.44 28.17 39.14 28.27 38.65 27.6 39.07 27.17 38.82 26.34 38.33 26.05 39.41 25.47 40.48 25.47 40.97 24.85 41.24 23.87 42.43 23.46 43.41 23.44 44.2 24.28 43.83 25.09 45.02 25.09 45.31 24.81 45.67 25.17 46.4 24.77"/><polygon class="cls-1" points="49.01 23.11 50.17 23.98 50.17 24.54 51.15 25.09 51.15 25.66 51.75 26.41 53.23 26.41 53.9 26.7 53.9 28.02 52.81 30.8 53.04 31.33 52.55 31.82 50.8 30.97 49.64 29.86 49.64 30.18 48.08 30.18 47.48 29.7 46.53 29.62 46.53 29.06 45.99 28.31 46.96 27.77 46.96 27.31 46.74 27.09 47.48 26.52 47.48 25.87 46.4 24.77 46.54 24.43 46.83 24.42 46.83 23.11 49.01 23.11"/><polygon class="cls-1" points="55.69 21.58 55.69 22.28 56.91 23.55 56.91 24.91 56.17 24.99 56.17 25.72 55.29 25.72 55.29 26.18 53.9 26.7 53.23 26.41 51.75 26.41 51.15 25.66 51.15 25.09 50.17 24.54 50.17 23.98 49.01 23.11 49.01 21.85 49.64 21.17 50.2 21.7 51.26 21.8 52.7 20.37 53.87 20.37 53.87 21.06 54.41 21.58 55.69 21.58"/><polygon class="cls-1" points="59.76 22.72 60.03 23.11 60.31 22.99 61.44 24.01 61.44 25.05 62.5 26.21 61.56 27.19 61.56 28.3 60.13 28.3 59.31 29.17 58.76 28.61 58.13 28.67 57.29 27.83 57.72 27.34 56.17 25.72 56.17 24.99 56.91 24.91 56.91 23.55 55.69 22.28 55.69 21.58 56.24 21.58 57.45 20.33 57.45 20.9 60.06 22.37 59.76 22.72"/><polygon class="cls-1" points="53.15 32.1 53.64 32.1 53.64 32.9 56.35 34.79 59.35 34.06 59.65 33.33 60.6 32.49 60.64 31.43 60.64 30.74 60.28 30.74 60.05 29.88 60.26 29.88 60.59 29.5 60.45 28.87 59.59 28.87 59.31 29.17 58.76 28.61 58.13 28.67 57.29 27.83 57.72 27.34 56.17 25.72 55.29 25.72 55.29 26.18 53.9 26.7 53.9 28.02 52.81 30.8 53.04 31.33 53.15 32.1"/><polygon class="cls-1" points="69.5 22.89 68.38 25.64 68.3 26.56 67.87 26.97 66.43 26 65.85 26.37 65.33 25.9 64.08 25.91 63.85 25.48 62.5 26.21 61.44 25.05 61.44 24.01 60.31 22.99 60.03 23.11 59.76 22.72 60.06 22.37 61.59 21.73 62.44 21.73 62.82 22.81 63.77 22.81 66.27 21.8 67.69 22.3 68.98 21.17 68.98 22.62 69.55 22.81 69.5 22.89"/><polygon class="cls-1" points="67.82 27.02 67.45 27.56 67.82 29.06 66.95 29.06 66.47 29.54 65.27 29.54 63.58 31.15 63.02 31.15 61.83 31.74 61.01 31.74 60.64 31.43 60.64 30.74 60.28 30.74 60.05 29.88 60.26 29.88 60.59 29.5 60.45 28.87 59.59 28.87 60.13 28.3 61.56 28.3 61.56 27.19 62.5 26.21 63.85 25.48 64.08 25.91 65.33 25.9 65.85 26.37 66.43 26 67.87 26.97 67.82 27.02"/><polygon class="cls-1" points="61.83 31.74 62.5 32.57 62.12 33.44 63.39 33.98 63.73 34.9 64.01 34.9 64.77 35.55 64.04 36.24 64.3 36.55 64.01 36.92 64.33 37.24 66.13 35.56 66.13 34.02 66.6 33.71 67.05 33.71 68.7 31.6 68.7 31.21 68.96 31.21 69.31 30.56 68.29 30.56 68.58 30.12 68.39 29.27 67.82 29.06 66.95 29.06 66.47 29.54 65.27 29.54 63.58 31.15 63.02 31.15 61.83 31.74"/><polygon class="cls-1" points="69.64 29.43 68.92 29.43 68.92 29.81 68.58 30.12 68.39 29.27 67.82 29.06 67.45 27.56 67.87 26.97 68.98 27.46 68.98 28.15 68.77 28.65 69.28 28.65 69.64 29.08 69.64 29.43"/><polygon class="cls-1" points="59.38 34.12 59.38 34.54 60.42 35.06 59.9 35.5 60.55 36.87 60.12 37.35 60.12 37.82 60.36 38.12 60.03 38.44 60.03 38.79 60.99 39.8 61.72 39.31 62.3 39.8 63.07 39.8 64.15 38.48 64.59 37.54 64.33 37.24 64.01 36.92 64.3 36.55 64.04 36.24 64.77 35.55 64.01 34.9 63.73 34.9 63.39 33.98 62.12 33.44 62.5 32.57 61.83 31.74 61.01 31.74 60.64 31.43 60.6 32.49 59.65 33.33 59.35 34.06 59.38 34.12"/><polygon class="cls-1" points="53.64 32.9 52.66 33.26 52.66 34.95 52.94 35.23 52.94 35.92 52.25 35.92 51.62 36.6 51.06 36.15 50.44 36.36 51.15 37.94 51.98 37.94 52.57 38.59 52.57 39.57 51.96 39.97 51.98 40.58 52.62 40.86 54.28 40.86 54.74 40.47 54.74 39.8 56.18 39.8 56.97 40.66 57.77 37.94 58.19 37.94 58.55 38.16 59.14 37.92 59.59 38.36 60.03 38.44 60.36 38.12 60.12 37.82 60.12 37.35 60.55 36.87 59.9 35.5 60.42 35.06 59.38 34.54 59.38 34.12 59.35 34.06 56.35 34.79 53.64 32.9"/><polygon class="cls-1" points="46.44 30.64 46.18 31.59 46.77 32 46.77 33.55 47.28 33.98 47.28 35.86 48.03 36.88 48.39 36.52 49.09 36.52 49.56 36.88 50.44 36.36 51.06 36.15 51.62 36.6 52.25 35.92 52.94 35.92 52.94 35.23 52.66 34.95 52.66 33.26 53.64 32.9 53.64 32.1 53.15 32.1 53.04 31.33 52.55 31.82 50.8 30.97 49.64 29.86 49.64 30.18 48.08 30.18 47.48 29.7 46.53 29.62 46.09 30.06 46.44 30.64"/><polygon class="cls-1" points="42.67 29.06 42.05 29.67 42.56 30.25 42.56 30.95 41.88 31.05 41.88 31.97 40.94 31.97 40.05 33.15 41.51 33.15 42.05 34.95 41.51 35.49 42.3 37.13 42.3 38.89 42.78 38.89 43.32 38.16 44.28 38.16 44.69 37.83 44.69 36.98 45.31 36.37 46.18 36.37 46.47 35.86 47.28 35.86 47.28 33.98 46.77 33.55 46.77 32 46.18 31.59 46.44 30.64 46.09 30.06 44.96 30.1 43.78 29.28 43.36 29.5 42.75 28.98 42.67 29.06"/><polygon class="cls-1" points="51.23 40.45 51.54 40.6 51.54 42.37 50.76 42.72 50.26 42.23 49.58 42.23 49.22 41.86 47.99 41.86 46.64 41.27 46.64 40.3 45.99 40.3 44.97 41.3 44.46 41.3 43.66 39.9 43.16 39.9 42.78 38.89 43.32 38.16 44.28 38.16 44.69 37.83 44.69 36.98 45.31 36.37 46.18 36.37 46.47 35.86 47.28 35.86 48.03 36.88 48.39 36.52 49.09 36.52 49.56 36.88 50.44 36.36 51.15 37.94 51.98 37.94 52.57 38.59 52.57 39.57 51.96 39.97 51.23 40.45"/><polygon class="cls-1" points="33.6 28.54 34.94 28.58 34.94 29.29 35.44 29.05 36.45 30.49 36.45 31.59 37.01 31.66 37.51 32.61 39.32 31.94 40.53 32.51 40.94 31.97 41.88 31.97 41.88 31.05 42.56 30.95 42.56 30.25 42.05 29.67 42.75 28.98 42.46 28.73 41.36 28.73 41.1 28.89 40.52 28.74 40.16 29.06 39.44 28.17 39.14 28.27 38.65 27.6 39.07 27.17 38.82 26.34 38.33 26.05 38.33 26.33 37.48 26.45 36.5 25.88 36.5 25.41 35.79 25.41 35.25 24.88 34.95 26.59 33.6 28.54"/><polygon class="cls-1" points="37.59 32.77 37.57 33.66 37.13 34.09 36.64 34.09 36.05 34.43 35.74 36.15 34.94 36.24 35.25 36.67 35.25 37.42 36.64 38.31 36.64 39.29 38 39.29 38.56 38.88 39.77 39.17 40.05 38.62 40.36 38.89 42.3 38.89 42.3 37.13 41.51 35.49 42.05 34.95 41.51 33.15 40.05 33.15 40.53 32.51 39.32 31.94 37.51 32.61 37.59 32.77"/><polygon class="cls-1" points="31.44 29.95 30.58 32.61 31.88 33.79 31.88 34.54 32.72 34.54 33.46 34.09 34.03 34.34 34.03 35.01 34.94 36.24 35.74 36.15 36.05 34.43 36.64 34.09 37.13 34.09 37.57 33.66 37.59 32.77 37.01 31.66 36.45 31.59 36.45 30.49 35.44 29.05 34.94 29.29 34.94 28.58 33.6 28.54 32.57 28.91 32.57 29.5 31.41 29.06 31.44 29.95"/><polygon class="cls-1" points="30.58 32.61 29.48 33.51 30.13 35.15 30.13 37.04 30.33 37.47 29.84 38.06 29.84 38.95 30.33 39.56 31.04 39.59 30.58 40.62 31.1 41.4 32.35 41.78 32.65 41.28 33.1 41.6 33.69 41.24 34.51 41.24 34.51 40.46 36.64 39.29 36.64 38.31 35.25 37.42 35.25 36.67 34.03 35.01 34.03 34.34 33.46 34.09 32.72 34.54 31.88 34.54 31.88 33.79 30.58 32.61"/><polygon class="cls-1" points="25.23 33.98 24.41 33.84 23.16 33.16 22.55 33.52 22.61 34.16 22.14 34.16 22.14 33.37 21.49 33.56 21.49 34.46 21.83 34.64 21.51 34.96 20.49 34.56 20.49 34.23 20.01 34.22 19.08 33.34 18.07 34.48 18.07 34.96 19.72 36.97 19.72 37.75 20.12 37.75 21.05 38.5 21.43 38.5 21.75 38.82 21.75 39.16 22.45 39.16 23.08 39.72 23.38 39.41 23.72 39.29 24.78 39.02 24.78 39.45 25.78 39.42 26.5 39.42 27.02 38.75 26.6 38.75 26.6 37.77 26.15 35.31 25.8 35.26 25.23 33.98"/><polygon class="cls-1" points="27.94 27.76 27.41 27.76 27.09 28.07 26.27 28.07 25.31 27.56 23.65 27.23 23.56 27.5 23.5 27.82 23.8 28.11 23.8 28.75 24.67 29.17 23.84 29.17 23.84 29.71 24.93 29.86 24.93 30.8 23.87 30.8 22.84 31.24 23.18 31.79 23.61 31.79 23.69 32.39 23.33 32.61 23.33 32.93 23.96 33.28 23.92 33.57 24.41 33.84 25.23 33.98 27.01 33.98 27.01 33.47 27.86 33.47 28.04 33.16 29.32 33.16 29.48 33.51 30.58 32.61 31.44 29.95 31.41 29.06 31.1 29.38 29.91 28.68 29.38 28.68 29.01 28.32 28.34 28.31 28.11 27.73 27.94 27.76"/><polygon class="cls-1" points="28.11 27.73 27.94 27.76 27.41 27.76 27.09 28.07 26.27 28.07 25.31 27.56 23.66 27.23 24.14 25.81 24.84 25.81 24.48 23.52 24.77 23.13 24.75 21.71 25.75 21.7 26.36 22.18 27.09 21.8 27.09 22.19 27.78 21.8 29.16 21.8 29.25 21.38 29.66 21.38 29.66 22.25 30.2 22.97 30.2 22.97 29.63 22.97 29.63 24.27 29.04 24.63 29.04 25.52 28.52 25.52 28.78 26.4 28.24 26.4 27.94 27.3 28.11 27.73"/><polygon class="cls-1" points="18.73 28.59 18.73 29.19 18.28 29.44 17.54 29.44 16.77 29.75 16.18 30.34 17.01 31.5 17.6 31.5 18.16 31.11 19.16 31.11 19.16 31.37 18.22 31.5 18.22 32.09 17.85 32.45 18.68 32.73 19.08 33.34 20.01 34.22 20.49 34.23 20.49 34.56 21.51 34.96 21.83 34.64 21.49 34.46 21.49 33.56 22.14 33.37 22.14 34.16 22.61 34.16 22.55 33.52 23.16 33.16 23.92 33.57 23.96 33.28 23.33 32.93 23.33 32.61 23.68 32.39 23.61 31.79 23.18 31.79 22.84 31.24 23.87 30.8 24.93 30.8 24.93 29.86 23.84 29.71 23.84 29.17 24.67 29.17 23.8 28.75 23.8 28.11 23.5 27.82 23.56 27.5 22.46 26.94 21.17 27.88 20.12 27.88 18.73 28.45 18.73 28.59"/><polyline class="cls-1" points="41.94 53.04 42.41 53.34 42.05 54 41.6 54 40.31 54.72 40.76 55.81 40.47 55.99 39.45 55.99 38.82 56.59 38.2 56.59 37.47 56.83 35.72 55.51 35.4 54.25 35.85 53.79 37.62 52.2 37.62 50.53 37.97 50.38 38.41 50.21 39.09 50.16 39.94 51.13 40.67 50.68 41.69 50.71 41.94 51.97 41.94 53.04"/><polygon class="cls-1" points="33.91 58.2 34.32 58.53 33.91 59.13 34.73 59.26 35.04 60.34 35.61 60.13 36.22 60.13 36.7 60.39 37.41 60.15 37.29 59.88 37.52 59.55 38.49 59.41 39.42 58.26 39.15 57.75 40.21 57.75 41.08 57.36 40.47 55.99 39.45 55.99 38.82 56.59 38.2 56.59 37.47 56.83 35.72 55.51 34.78 55.51 34.78 56.1 35.1 56.31 34.57 57.4 34.08 57.4 33.9 58.05 33.91 58.2"/><polygon class="cls-1" points="46.99 60.93 46.04 60.65 45.13 60.79 44.19 58.49 42.12 57.06 41.08 57.36 40.21 57.75 39.15 57.75 39.42 58.26 38.49 59.41 39.37 60.88 39.37 61.66 41.29 62.81 41.29 63.3 41.43 63.3 41.71 63.58 42.49 63.58 42.77 63.12 43.09 63.44 44.66 63.44 45.24 62.92 45.24 62.49 45 62.28 45 61.44 45.62 61.76 46.41 61.46 46.99 60.93"/><polyline class="cls-1" points="18.02 24.24 17.53 24.42 17.34 24.01 16.82 24.01 16.56 24.58 15.86 24.88 15.86 24.29 15.15 24.29 13.88 23.55 12.81 23.88 11.58 23.32 11.11 23.27 11.03 21.01 11.45 20.6 10.78 20.17 10.78 19.05 11.06 19.21 11.41 19.39 11.41 18.33 11.95 18.14 12.19 18.33 14.07 18.05 14.26 18.48 16.02 20.97 17.73 20.06 18.35 20.54 18.91 20.54 19.73 20.95 20.21 21.37 19.78 22.1 19.78 23.32 18.73 23.29 18.02 24.24"/><polyline class="cls-1" points="10.97 26.78 11.43 27.24 12.12 27.38 12.92 28.3 13.01 28.55 14.11 28.55 15.41 28.55 15.39 28.84 14.42 28.84 14.63 29.23 16.34 29.23 16.69 29.23 16.54 29.5 16.55 29.96 16.77 29.75 17.54 29.44 18.28 29.44 18.73 29.19 18.73 26.49 19.02 26.11 18.58 25.54 18.02 25.52 18.02 24.24 17.53 24.42 17.34 24.01 16.82 24.01 16.56 24.58 15.86 24.88 15.86 24.29 15.15 24.29 13.88 23.55 12.81 23.88 11.58 23.33 11.12 23.27 10.07 23.77 10.5 24.88 11.15 25.08 11.93 25.35 11.93 25.98 11.34 26.3 11.08 26.3 10.97 26.78"/><polyline class="cls-1" points="10.96 26.78 11.08 26.3 11.34 26.3 11.93 25.98 11.93 25.35 11.15 25.08 10.5 24.88 10.07 23.77 11.11 23.27 11.03 21.01 11.45 20.6 10.78 20.17 10.78 19.05 10.76 19.05 9.98 19.05 9.85 19.69 9.02 18.86 6.82 19.22 5.96 19.37 5.96 19.69 4.75 19.84 4.46 21.67 5.48 21.67 7.04 21.21 6.59 21.8 7.47 22.01 7.47 22.47 7 22.27 5.68 22.1 5.68 22.95 6.22 22.77 7.12 22.77 7.12 23.83 6.56 23.59 5 23.83 4.59 24.03 6.17 24.79 6.5 26.07 7.38 26.07 7.86 25.75 8.73 25.75 9.2 26.46 10.09 26.46 10.41 26.78 10.96 26.78"/><polygon class="cls-1" points="38 39.44 38 40.08 37.68 40.4 38.62 41.69 38.62 43.01 39.15 43.67 40.05 43.67 40.67 44.05 40.67 44.73 41.15 44.73 41.52 44.36 43.09 45.05 43.3 44.62 43.59 44.91 43.93 44.56 43.38 43.99 44.66 42.64 44.66 41.99 44.46 41.3 43.66 39.9 43.16 39.9 42.78 38.89 40.36 38.89 40.05 38.62 39.77 39.17 38.56 38.88 38 39.29 38 39.44"/><polyline class="cls-1" points="37.01 46.83 36.36 46.65 36.28 46.18 35.66 45.57 34.38 45.57 33.46 44.65 33.89 43.87 34.3 43.87 35.23 42.72 35.23 42.33 34.48 42.01 34.52 41.24 34.52 40.45 36.65 39.29 38.01 39.29 38.01 39.43 38.01 40.08 37.68 40.4 38.62 41.69 38.62 43.01 39.15 43.67 40.06 43.67 40.67 44.04 40.67 44.72"/><polyline class="cls-1" points="40.67 44.72 38.83 45.95 38.25 45.98 37 46.83"/><polygon class="cls-1" points="36.97 46.94 37.22 47.52 36.84 48.1 36.84 49.18 37.68 49.27 37.97 50.38 38.41 50.21 39.09 50.16 39.94 51.13 40.67 50.68 41.69 50.71 42.49 49.18 42.49 48.53 43.38 47.65 43.96 47.32 44.03 46.07 43.82 45.76 44.47 45.11 43.93 44.56 43.59 44.91 43.3 44.62 43.09 45.05 41.52 44.36 41.15 44.73 40.67 44.73 38.82 45.96 38.23 45.94 37 46.84 36.97 46.94"/><polygon class="cls-1" points="47.5 53.88 47.49 54.7 47.88 55.04 47.88 56.27 48.58 57.08 48.95 57.08 48.95 58.02 49.69 58.38 48.42 60.13 47.49 60.13 47.49 61.08 46.04 60.65 45.13 60.79 44.19 58.49 42.12 57.06 41.08 57.36 40.47 55.99 40.76 55.81 40.31 54.72 41.6 54 42.05 54 42.41 53.34 43.89 53.34 44.69 52.32 44.73 51.72 45.41 51.12 45.8 51.52 46.15 51.52 46.93 53.34 47.5 53.88"/><polygon class="cls-1" points="49.1 50.89 49.69 51.89 50.23 51.89 50.48 51.52 50.81 51.52 51.33 51.89 52.12 52.54 52.12 53.66 52.57 53.91 52.85 54.77 52.32 55.4 52.73 56.34 52.72 57.05 52.32 57.51 51.8 57.51 50.76 57.22 50.76 57.58 49.56 57.58 48.95 57.08 48.58 57.08 47.88 56.27 47.88 55.04 47.49 54.7 47.5 53.88 46.93 53.34 47.67 51.39 48.08 51.52 48.31 51.04 49.1 50.75 49.1 50.89"/><polygon class="cls-1" points="52.94 54.86 53.17 55.08 53.25 55.72 53.96 55.72 54.41 56.31 54.97 55.7 55.32 56.1 55.7 55.72 56.45 55.72 57.11 56.7 57.11 57.58 57.88 58.38 56.81 59.45 56.72 60.87 55.93 60.87 55.52 61.47 55.84 61.79 54.52 62.87 53.86 62.87 53.55 61.99 54.19 61.36 53.84 60.67 52.57 59.49 52.16 59.49 51.67 58.86 50.74 59.79 49.04 59.27 49.69 58.38 48.95 58.02 48.95 57.08 49.56 57.58 50.76 57.58 50.76 57.22 51.8 57.51 52.32 57.51 52.72 57.05 52.73 56.34 52.32 55.4 52.85 54.77 52.94 54.86"/><polygon class="cls-1" points="56.96 47.35 56.07 48.28 55.59 48.34 54.84 49.68 54.2 50.55 53.86 51.39 53.42 51.39 52.12 52.54 52.12 53.66 52.57 53.91 52.85 54.77 53.17 55.08 53.25 55.72 53.96 55.72 54.41 56.31 54.97 55.7 55.32 56.1 55.7 55.72 56.45 55.72 57.24 53.27 57.24 52.16 57.88 50.8 57.56 50.41 57.35 47.74 56.96 47.35"/><polygon class="cls-1" points="57.45 47.74 57.88 47.74 58.4 47.44 59.6 48.34 59.6 49.55 61.37 49.55 61.37 51.83 63.36 52.52 63.18 53.02 62.34 53.02 62.34 54 62.16 54.41 61.39 54.41 61.39 55.25 62.39 55.52 62.83 55.98 62.75 56.58 61.85 57.51 59.81 56.31 59.81 55.84 57.76 56.49 57.76 55.77 56.45 55.72 57.24 53.27 57.24 52.16 57.88 50.8 57.56 50.41 57.35 47.74 57.45 47.74"/><polygon class="cls-1" points="58.26 55.12 58.78 55.12 59.08 55.49 58.67 56.03 58.26 56.03 58.01 55.57 58.26 55.12"/><polygon class="cls-1" points="61.95 57.58 61.95 58.59 62.28 58.97 62.28 59.6 63.36 60.27 62.73 60.9 61.95 60.9 60.71 60.42 59.91 60.42 57.32 58.94 57.88 58.38 57.11 57.58 57.11 56.7 56.45 55.72 57.76 55.77 57.76 56.49 59.81 55.84 59.81 56.31 61.85 57.51 61.95 57.58"/><path class="cls-1" d="M54.84,40.58l.16.54-.91.71.68,1.58v1.5s.84.75.89.75h.79v.69H57v1l-.89.94-.48.05-1.5-1.11-1.24.3L52,47.48l.59-.79V46L51,44.11l.26-.94-.48-.45.78-.35V40.61l-.31-.17L52,40l0,.61.64.28h1.66l.46-.39Z"/><polyline class="cls-1" points="49.1 50.75 48.17 48.19 47.53 47.78 48.88 47.03 49.86 47.03 50.44 47.59 51.98 47.48 52.86 47.53 54.09 47.23 55.59 48.34 54.84 49.68 54.2 50.55 53.86 51.39 53.42 51.39 52.12 52.54 51.34 51.89 50.82 51.52 50.48 51.52 50.23 51.89 49.69 51.89 49.1 50.89 49.1 50.75"/><polygon class="cls-1" points="56.96 46.61 57.65 46.01 57.36 45.59 58.31 45.42 58.97 44.36 58.97 43.76 57.88 43.71 56.77 42.58 56.99 42.42 56.97 40.66 56.18 39.8 54.74 39.8 54.74 40.47 54.84 40.58 55 41.12 54.09 41.83 54.77 43.41 54.77 44.91 55.66 45.66 56.45 45.66 56.45 46.35 56.96 46.35 56.96 46.61"/><polygon class="cls-1" points="64.23 38.52 64.77 38.91 64.56 39.87 63.75 40.3 63.75 40.79 63.01 41.05 63.01 44.06 61.95 45.01 60.17 43.23 59.6 43.96 59.42 43.77 58.97 43.76 57.88 43.71 56.77 42.58 56.99 42.42 56.97 40.66 57.77 37.94 58.19 37.94 58.55 38.16 59.14 37.92 59.59 38.36 60.03 38.44 60.03 38.79 60.99 39.8 61.72 39.31 62.3 39.8 63.07 39.8 64.09 38.56 64.15 38.48 64.23 38.52"/><polygon class="cls-1" points="63.75 40.79 64.67 40.59 65.57 39.9 65.27 39.7 65.27 39.21 65.64 38.75 66.24 38.75 66.67 38.37 68.22 38.37 68.22 38.92 68.82 39.45 68.37 39.91 68.43 40.6 68.82 40.6 68.82 41.19 69.24 41.19 69.83 41.78 69.83 42.49 69.31 42.84 68.58 42.84 68.58 43.5 68.09 44 67.18 43.2 67.18 42.59 66.79 42.59 65.85 44.15 65.13 44.21 64.79 43.87 63.96 43.87 63.01 42.41 63.01 41.05 63.75 40.79"/><polygon class="cls-1" points="68.58 43.5 68.75 44.01 69.83 44.48 69.83 45.66 70.98 46.29 70.4 46.87 70.5 47.91 69.94 47.91 69.22 48.6 68.28 48.6 67.96 48.94 67.19 48.99 66.95 49.4 66.51 49.4 66.23 48.88 65.77 48.88 65.14 48.49 65.14 47.51 65.39 47.51 65.42 46.94 64.13 46.01 63.77 46.37 63.72 46.89 63.45 46.89 62.74 46.18 61.95 45.01 63.01 44.06 63.01 42.41 63.96 43.87 64.79 43.87 65.13 44.21 65.85 44.15 66.79 42.59 67.18 42.59 67.18 43.2 68.09 44 68.58 43.5"/><polygon class="cls-1" points="65.77 48.88 65.53 49.79 66.2 49.98 66.2 51.03 65.16 51.13 63.36 52.52 61.37 51.83 61.37 49.55 59.6 49.55 59.6 48.34 58.4 47.44 57.88 47.74 57.35 47.74 56.96 47.35 56.96 46.61 57.65 46.01 57.36 45.59 58.31 45.42 58.97 44.36 58.97 43.76 59.42 43.77 59.6 43.96 60.17 43.23 61.95 45.01 62.74 46.18 63.45 46.89 63.72 46.89 63.77 46.37 64.13 46.01 65.42 46.94 65.39 47.51 65.14 47.51 65.14 48.49 65.77 48.88"/><polygon class="cls-1" points="68.01 49.02 68.28 49.65 68.67 49.65 68.67 50.57 69.3 50.97 70.21 50.97 70.21 51.72 70.49 52.28 69.22 52.96 68.31 53.94 68.31 54.34 67.35 54.34 66.62 53.84 65.92 54.29 65.93 54.75 65.12 54.2 64.08 55.31 64.08 56 63.64 56 64.06 56.56 62.75 56.58 62.83 55.98 62.39 55.52 61.39 55.25 61.39 54.41 62.16 54.41 62.34 54 62.34 53.02 63.18 53.02 63.36 52.52 65.16 51.13 66.2 51.03 66.2 49.98 65.53 49.79 65.77 48.88 66.23 48.88 66.51 49.4 66.95 49.4 67.19 48.99 67.96 48.94 68.01 49.02"/><polygon class="cls-1" points="65.92 54.75 65.92 54.29 66.62 53.84 67.35 54.34 68.31 54.34 68.31 53.94 69.22 52.96 70.04 52.52 69.99 52.78 69.99 53.28 69.55 53.84 69.77 54.84 68.81 56.02 68.81 56.96 69.07 57.25 69.07 57.58 70.24 58.56 69.38 58.69 69.11 58.97 68.66 58.97 68.66 59.6 67.41 59.6 66.86 60.15 66.3 59.68 64.99 60.78 64.45 60.11 63.36 60.27 62.28 59.6 62.28 58.97 61.95 58.59 61.95 57.58 61.85 57.51 62.75 56.58 64.06 56.56 63.64 56 64.08 56 64.08 55.31 65.12 54.21 65.92 54.75"/><polygon class="cls-1" points="69.9 54.98 70.49 55.5 70.49 55.81 71.73 56.25 72.61 56.65 73.28 56.65 74.2 56.23 74.75 56.65 74.75 57.1 73.88 58.41 73.5 58.89 73.71 58.89 73.73 59.41 71.89 60.78 71.53 60.78 71.52 61.36 70.75 61.36 70.18 61.9 70.21 61.08 69.83 61.09 69.3 60.55 69.3 60.05 68.66 59.6 68.66 58.97 69.11 58.97 69.38 58.69 70.24 58.56 69.07 57.58 69.07 57.25 68.81 56.96 68.81 56.02 69.77 54.84 69.9 54.98"/><path class="cls-1" d="M63.14,64.9l.73.95s.71-.4.75-.4.45.21.48.21l1.69-.39.89-.32.5-.27.48.07.39-.75-.48-.23.3-.52h.37l.1-.57h.57l.27-.78,0-.83-.37,0-.54-.54v-.5l-.64-.45H67.41l-.55.55-.56-.47L65,60.78l-.54-.67-1.09.16.18.51-.4.5-.09.61h.2l0,.7.34.4h-.57l.09.69.39.4-.35.35-.13.35Z"/><polygon class="cls-1" points="62.94 64.85 62.51 65.02 62.28 64.79 61.25 64.79 61.25 64.13 60.78 63.57 60.48 63.87 59.13 63.77 58.61 63.24 58.04 63.09 58.04 63.47 58.34 63.47 58.16 63.85 56.68 63.74 56.38 63.41 56.38 62.87 54.52 62.87 55.84 61.79 55.52 61.47 55.93 60.87 56.72 60.87 56.81 59.45 57.32 58.94 59.91 60.42 60.71 60.42 61.95 60.9 62.73 60.9 63.36 60.27 63.54 60.78 63.14 61.28 63.05 61.89 63.25 61.9 63.28 62.6 63.62 63 63.05 63.02 63.14 63.7 63.53 64.1 63.18 64.45 63.05 64.77 62.94 64.85"/><polygon class="cls-1" points="46.99 60.93 46.41 61.46 45.62 61.76 45 61.44 45 62.28 45.24 62.49 45.24 62.92 44.32 63.74 44.87 64.28 45.3 64.28 45.7 64.75 46.45 64 47.12 64 47.12 64.46 48.57 65.02 49.32 64.27 50.27 64.27 51.03 63.52 51.43 63.52 52.76 62.23 53.64 62.23 53.55 61.99 54.19 61.36 53.84 60.67 52.57 59.49 52.16 59.49 51.67 58.86 50.74 59.79 49.04 59.27 48.42 60.13 47.49 60.13 47.49 61.08 46.99 60.93"/><polygon class="cls-1" points="48.51 65.11 47.4 66.75 47.4 68.03 46.19 67.5 45.65 68.05 43.15 68.05 43.15 69.07 42.26 69.53 41.54 68.83 41.4 68.96 40.81 68.96 40.34 68.05 41.02 67.86 41.02 66.43 40.59 65.63 39.81 65.63 39.45 65.26 39.28 64.51 40.29 63.3 41.43 63.3 41.71 63.58 42.49 63.58 42.77 63.12 43.09 63.44 44.66 63.44 44.32 63.74 44.87 64.28 45.3 64.28 45.7 64.75 46.45 64 47.12 64 47.12 64.46 48.57 65.02 48.51 65.11"/><polygon class="cls-1" points="47.4 68.03 47.4 70.42 47.82 70.84 48.16 71.35 47.54 71.42 46.89 70.97 45.94 71.58 45.13 71.58 45.13 72.06 44.15 72.06 42.75 71.36 41.95 71.56 41.57 71.94 41.13 72.06 40.54 71.22 40.11 70.92 39.46 70.92 39.46 70.36 40.37 70.22 41.08 69.53 42.26 69.53 43.15 69.07 43.15 68.05 45.65 68.05 46.19 67.5 47.4 68.03"/><polygon class="cls-1" points="39.76 70.25 39.38 69.83 38.91 69.83 38.59 69.55 37.99 69.55 37.99 70.07 37.05 69.13 35.94 69.13 35.94 68.67 35.53 68.39 34.53 68.39 34.17 68.08 34.17 67.19 35.16 66.74 35.16 65.9 35.89 65.5 36.47 65.99 36.72 65.99 37.06 65.55 36.54 65.55 36.54 65.23 36.97 65.23 37.42 64.89 37.05 64.51 37.05 64.17 37.5 64.17 37.78 64.58 37.78 64.97 38.04 65.02 38.28 64.51 38.47 64.69 39.32 64.67 39.45 65.26 39.81 65.63 40.59 65.63 41.02 66.43 41.02 67.86 40.34 68.05 40.81 68.96 41.4 68.96 41.54 68.83 42.26 69.53 41.08 69.53 40.37 70.22 39.82 70.31 39.76 70.25"/><polygon class="cls-1" points="41.29 63.2 41.29 62.81 39.37 61.66 39.37 60.88 38.49 59.41 37.52 59.55 37.29 59.88 37.41 60.15 36.7 60.39 36.22 60.13 35.61 60.13 35.04 60.34 35.69 61.46 36.34 62.11 35.63 62.31 35.28 63.67 34.74 63.14 33.84 63.34 32.56 64.62 32.56 64.92 32.28 64.92 32.28 65.26 31.93 65.61 32.5 65.96 32.5 66.5 32.87 66.5 32.87 66.86 33.17 66.86 32.54 67.65 31.99 67.65 31.99 68.87 32.15 69.08 33.15 69.06 33.15 68.74 33.08 68.51 33.08 67.8 33.63 67.8 34.17 68.08 34.17 67.19 35.16 66.74 35.16 65.9 35.89 65.5 36.47 65.99 36.72 65.99 37.06 65.55 36.54 65.55 36.54 65.23 36.97 65.23 37.42 64.89 37.05 64.51 37.05 64.17 37.5 64.17 37.78 64.58 37.78 64.97 38.04 65.02 38.28 64.51 38.47 64.69 39.32 64.67 39.28 64.51 40.29 63.3 41.29 63.3 41.29 63.2"/><polygon class="cls-1" points="32.84 64.09 32.12 63.87 31.68 63.87 31.04 63.46 30.34 63.46 30.34 62.84 30.02 62.47 29.27 61.58 28.92 61.58 28.7 61.79 28.7 62.13 29.15 62.67 28.88 62.97 29.38 62.97 29.32 64.17 28.7 65.07 27.52 66.33 27.52 67.08 27.28 67.33 27.28 67.8 28.89 69.08 30.27 68.79 30.84 69.18 31.27 68.87 31.62 69.13 32.15 69.08 31.99 68.87 31.99 67.65 32.54 67.65 33.17 66.86 32.87 66.86 32.87 66.5 32.5 66.5 32.5 65.96 31.93 65.61 32.28 65.26 32.28 64.92 32.56 64.92 32.56 64.62 33.08 64.09 32.84 64.09"/><polygon class="cls-1" points="27.17 67.86 26.85 68.12 25.94 68.12 25.73 68.27 24.85 67.38 24.85 66.77 23.49 66.77 21.57 65.81 21.57 65.27 21.18 65.27 21.12 66.03 20.4 65.61 21.06 64.25 20.09 63.75 19.72 64.12 19.32 63.72 18.91 63.72 18.57 63.18 19.72 62.63 20.18 61.93 20.76 61.93 21.1 62.17 21.64 62.17 22.16 61.96 22.87 62.15 23.5 61.98 24.73 61.75 25.72 62.01 26.64 61.58 26.64 61.96 27.37 61.95 27.72 61.75 28.7 61.75 28.7 62.13 29.15 62.67 28.88 62.97 29.38 62.97 29.32 64.17 28.7 65.07 27.52 66.33 27.52 67.08 27.28 67.33 27.28 67.8 27.17 67.86"/><polygon class="cls-1" points="20.3 61.73 20.33 61.69 20.8 60.83 22.23 54.3 23.25 53.93 23.81 54.05 23.75 54.61 24.74 54.83 25.66 54.57 25.91 55.03 26.96 55.7 27.21 56.1 27.21 56.59 28.1 56.59 28.43 56.18 28.71 56.46 28.71 57.05 30.25 57.64 29.82 58.26 29.81 59.18 29.53 59.23 29.32 59.02 29.48 58.86 29.17 58.55 28.8 58.92 28.16 58.99 28.16 60.47 27.84 61.23 27.84 61.73 27.72 61.75 27.37 61.95 26.64 61.96 26.64 61.58 25.72 62.01 24.73 61.75 23.51 61.98 22.87 62.15 22.16 61.96 21.64 62.17 21.1 62.17 20.76 61.93 20.18 61.93 20.3 61.73"/><polygon class="cls-1" points="35.29 53.35 35.92 53.72 35.4 54.25 35.72 55.51 34.78 55.51 34.78 56.1 35.1 56.31 34.57 57.4 34.08 57.4 33.9 58.05 33.51 58.44 33.02 58.05 32.23 58.05 31.67 58.5 30.63 58.5 30.38 58.67 29.82 58.57 29.82 58.26 30.25 57.64 28.71 57.05 28.71 56.46 29.28 56.1 29.07 55.59 29.49 55.59 29.49 53.93 30.07 53.93 30.55 53.45 30.62 53.09 30.23 52.7 31.21 52.2 31.61 52.59 31.63 53.11 32.25 53.11 33.24 52.74 33.63 53.05 34.45 53.05 34.46 53.7 35.29 53.35"/><polyline class="cls-1" points="29.82 58.58 29.81 59.18 29.52 59.23 29.32 59.02 29.48 58.86 29.16 58.55 28.79 58.92 28.16 58.99 28.16 60.47 27.84 61.23 27.84 61.73 27.84 61.75 28.69 61.75 28.74 61.75 28.92 61.58 29.26 61.58 30.02 62.47 30.34 62.84 30.34 63.46 31.04 63.46 31.68 63.87 32.12 63.87 32.83 64.09 33.08 64.09 33.84 63.34 34.74 63.14 35.28 63.67 35.62 62.31 36.34 62.11 35.69 61.46 35.04 60.34"/><polyline class="cls-1" points="29.82 58.57 30.38 58.67 30.63 58.5 31.67 58.5 32.23 58.05 33.02 58.05 33.51 58.44 33.9 58.05 33.91 58.2 34.32 58.53 33.91 59.13 34.73 59.26 35.04 60.34"/><polygon class="cls-1" points="23.61 45.45 23.25 45.9 22.31 52.51 22.88 51.94 23.49 52.34 23.61 52.9 23.13 53 22.65 52.89 22.31 53.7 22.23 54.3 23.25 53.93 23.81 54.05 23.75 54.61 24.74 54.83 25.66 54.57 25.91 55.03 26.96 55.7 27.21 56.1 27.21 56.59 28.1 56.59 28.43 56.18 28.71 56.46 29.28 56.1 29.07 55.59 29.49 55.59 29.49 53.93 30.01 53.93 30.55 53.45 30.62 53.09 30.23 52.7 31.21 52.2 31.21 51.37 30.84 51.7 30.06 51.7 29.55 51.44 29.8 51.19 29.8 50.13 30.16 49.77 29.97 49.26 29.15 49.26 28.83 49.53 27.36 48.72 27.36 47.98 26.58 47.81 26.4 47.47 25.67 47.47 25.77 48.28 25.55 48.32 24.93 47.03 23.82 45.99 23.61 45.45"/><polygon class="cls-1" points="23.72 39.29 24.78 39.02 24.78 39.45 25.78 39.42 25.78 39.45 25.78 40.03 26.53 40.82 28.35 41.5 28.98 41.83 29.35 42.49 29.35 43.1 29 43.87 27.58 43.87 27.26 44.26 27.26 45.13 28.1 45.61 28.36 46.84 28.11 47.21 28.2 47.74 29.48 48.15 29.74 48.4 29.39 49.26 29.15 49.26 28.83 49.53 27.36 48.72 27.36 47.98 26.58 47.81 26.4 47.47 25.67 47.47 25.53 46.77 25 45.96 24.06 45.13 22.83 44.36 22.83 43.6 23.39 43.6 23.32 43.01 23.6 43.01 23.8 42.63 23.8 41.51 23.35 40.77 22.94 40.7 22.94 40.41 23.7 39.8 23.69 39.4 23.72 39.29"/><polygon class="cls-1" points="21.83 41.46 22.05 42.29 22.68 42.81 22.89 43.3 23.08 42.75 22.98 42.49 22.92 41.99 22.39 41.99 22.01 41.38 21.83 41.46"/><polygon class="cls-1" points="21.21 39.72 21.57 39.72 21.57 40.04 22.45 40.21 22.75 40.44 22.75 40.86 22.45 40.86 21.69 40.35 21.39 40.35 21.21 40.11 21.21 39.72"/><polygon class="cls-1" points="30.36 41.44 29.74 41.64 29.74 42.12 29.35 42.49 29.35 43.1 29 43.87 27.58 43.87 27.26 44.26 27.26 45.13 28.1 45.61 28.36 46.84 28.11 47.21 28.2 47.74 29.48 48.15 29.74 48.4 29.59 48.75 30.62 48.75 31.33 48.04 31.33 46.96 32 46.29 32.33 46.29 32.75 45.86 32.75 45.19 33.16 45.19 33.46 44.66 33.89 43.87 34.3 43.87 35.23 42.72 35.23 42.33 34.48 42.01 34.51 41.24 33.69 41.24 33.1 41.6 32.65 41.28 32.35 41.78 31.1 41.4 30.36 41.44"/><polyline class="cls-1" points="37.97 50.37 37.62 50.53 37.62 52.19 35.93 53.72 35.29 53.34 34.46 53.69 34.45 53.05 33.63 53.05 33.25 52.74 32.26 53.11 31.64 53.11 31.61 52.59 31.22 52.19 31.22 51.36 30.84 51.7 30.06 51.7 29.55 51.44 29.81 51.19 29.81 50.13 30.16 49.77 29.98 49.26 29.39 49.26 29.4 49.26 29.39 49.26 29.6 48.75 30.62 48.75 31.33 48.04 31.33 46.96 32.01 46.28 32.33 46.28 32.76 45.86 32.76 45.19 33.16 45.19 33.46 44.65 34.38 45.57 35.66 45.57 36.28 46.18 36.36 46.65 37 46.83 36.97 46.94 37.22 47.51 36.84 48.1 36.84 49.17 37.68 49.26 37.97 50.37"/><polygon class="cls-1" points="29.35 42.49 28.98 41.83 28.35 41.5 27.98 41.36 26.53 40.82 25.78 40.03 25.78 39.42 26.5 39.42 27.02 38.75 26.6 38.75 26.6 37.77 26.15 35.31 25.8 35.26 25.23 33.98 27.01 33.98 27.01 33.47 27.86 33.47 28.04 33.16 29.07 33.16 29.32 33.16 29.48 33.51 30.13 35.15 30.13 37.04 30.33 37.47 29.84 38.06 29.84 38.95 30.33 39.56 31.04 39.59 30.58 40.62 31.1 41.4 30.36 41.44 29.74 41.64 29.74 42.12 29.35 42.49"/><polygon class="cls-1" points="71.76 24.34 72.03 25.29 71.61 27.75 72.14 28.4 71.49 29.52 71 29.81 70.04 29.81 69.64 29.43 69.64 29.08 69.28 28.65 68.77 28.65 68.98 28.15 68.98 27.46 67.87 26.97 68.3 26.56 68.38 25.63 69.5 22.89 69.55 22.81 70.81 23.29 71.73 24.24 71.76 24.34"/><polygon class="cls-1" points="62.66 13.89 63.16 13.89 63.65 13.4 64.21 13.4 64.52 13.6 65.14 13.6 65.91 14.39 65.91 14.81 66.64 15.94 67.22 15.94 67.22 15.49 67.84 15.51 68.35 16.07 69.8 16.07 70.19 15.53 70.69 15.53 71 16.45 71.61 16.45 71.14 17.61 69.95 17.61 68.58 16.83 67.87 17.96 68.58 18.35 68.58 18.96 69.13 18.51 69.94 18.87 69.94 19.4 69.57 19.77 69.87 20.06 69.87 20.59 68.98 21.17 68.07 20.26 65.43 19.14 64.94 19.14 64.56 18.76 64.56 17.93 63.55 17.93 62.81 17.18 62.73 15.21 62.31 14.8 62.31 13.61 62.66 13.89"/><polygon class="cls-1" points="71.61 16.68 73.37 16.68 74.07 16.99 74.65 16.99 74.08 18.56 72.72 20.14 72.73 21.15 72.34 21.95 72.57 22.37 71.73 24.24 70.81 23.29 69.55 22.81 68.98 22.62 68.98 21.17 69.87 20.59 69.87 20.06 69.57 19.77 69.94 19.4 69.94 18.87 69.13 18.51 68.58 18.96 68.58 18.35 67.87 17.96 68.58 16.83 69.95 17.61 71.14 17.61 71.52 16.68 71.61 16.68"/><polyline class="cls-1" points="47.53 47.78 48.17 48.19 49.1 50.75 48.31 51.04 48.08 51.52 47.67 51.39 46.93 53.34 46.15 51.52 45.8 51.52 45.41 51.12 44.73 51.72 44.69 52.32 43.89 53.34 42.41 53.34 41.94 53.04 41.94 51.97 41.69 50.71 42.49 49.18 42.49 48.53 43.38 47.65 43.96 47.32 44 46.59 44.14 46.69 45.34 47.43 46.4 47.43 46.91 48.12 47.53 47.78"/><polygon class="cls-1" points="44.14 46.69 45.34 47.43 46.4 47.43 46.91 48.12 48.88 47.03 49.86 47.03 50.44 47.59 51.98 47.48 52.57 46.69 52.57 45.97 50.98 44.11 51.24 43.17 50.76 42.72 50.26 42.23 49.58 42.23 49.22 41.86 47.99 41.86 46.64 41.27 46.64 40.3 45.99 40.3 44.97 41.3 44.46 41.3 44.66 41.99 44.66 42.64 43.38 43.99 44.47 45.11 43.82 45.76 44.03 46.07 44 46.59 44.14 46.69"/><path class="cls-2" d="M43.43,23.44h-.06l.79.83-.36.81H45l.28-.28.37.37.72-.41.14-.34h.29v-1.3H49V21.84l.63-.68-.38-.36-.1-1.68-1.85-2-2.09.29-.62-.24h0l-1.26-.61H41.93l-.22-.24-.92.32h-.72L39.68,16l-.39,1.5h-.92l.43,1,.25,1.14v.84l1.32,2.08.59,0m0,0,.25,1.27,1.19-.4,1,0h.06"/><path class="cls-2" d="M32.32,14.28l-.77.16-1,1H29.37l-.57-.57H26.69l-.8-.46H25l-.26.24-.89-1.52.43-.95-.44-.34h-.5l-1,.4L21,11.47h-.36v.44l.38.37v.5l-.21.21.42,1.41.94,1.3v3.83l.95.67v.39h-.95l.22.95.6.38.83-.64,1,.43,1,0,.61.48.73-.37v.38l.68-.38H29.2l.08-.43h.42v.88l.53.71H31l1-1,.64.54v.76l1,.76h.31l.53.54H35v-.29l-.38-.84.28-.28.46-.08.51-.52v-1L35,20.61m1.76-.84"/><path class="cls-2" d="M35,20.61m4.84-5.88h0v-.06h0Z"/><polygon class="cls-2" points="73.21 68.77 72.65 65.55 71.84 65.55 71.84 68.17 71.21 68 70.51 68 67.81 70.38 67.81 71.4 67.81 72.87 68.51 73.26 68.34 74.52 69.11 74.7 68.73 76.27 69.95 76.48 69.46 77.26 71.45 78.83 72.44 79.03 72.46 78.87 73.03 74.48 73.06 74.2 73.8 72.77 73.21 68.77"/><polygon class="cls-2" points="59.96 38.42 59.96 38.77 60.91 39.79 61.64 39.29 62.22 39.79 62.99 39.79 64.06 38.47 64.51 37.52 64.25 37.23 66.04 35.54 66.04 34.01 66.51 33.7 66.96 33.7 68.6 31.58 68.6 31.2 68.86 31.2 69.2 30.54 68.19 30.54 68.48 30.11 68.82 29.8 68.82 29.42 69.54 29.42 69.54 29.07 69.18 28.64 68.67 28.64 68.89 28.14 68.89 27.45 67.77 26.96 67.72 27.01 67.77 26.96 66.34 25.99 65.76 26.36 65.24 25.89 63.99 25.91 63.77 25.47 62.42 26.21 61.48 27.18 61.48 28.29 60.06 28.3 59.52 28.86 59.24 29.16 58.69 28.6 58.06 28.66 57.22 27.82 57.66 27.34 56.11 25.71 55.23 25.71 55.23 26.17 53.85 26.69 53.18 26.4 51.7 26.4 51.1 25.65 51.1 25.08 50.13 24.54 50.13 23.97 48.98 23.11 46.8 23.11 46.8 24.41 46.51 24.42 46.37 24.76 47.44 25.86 47.44 26.51 46.71 27.09 46.93 27.3 46.93 27.76 45.96 28.3 46.5 29.05 46.5 29.61 46.05 30.05 46.41 30.63 46.15 31.57 46.73 31.99 46.73 33.53 47.24 33.97 47.24 35.85 48 36.86 48.36 36.5 49.05 36.5 49.53 36.86 50.4 36.35 51.1 37.92 51.93 37.92 52.52 38.57 52.52 39.55 51.91 39.95 51.93 40.57 52.57 40.84 54.23 40.84 54.68 40.45 54.68 39.79 56.12 39.79 56.91 40.64 57.7 37.92 58.12 37.92 58.48 38.14 59.07 37.9 59.52 38.34 59.96 38.42"/><path class="cls-2" d="M10.85,19.05h-.79l-.13.63-.83-.82-2.19.36-.86.15v.31l-1.2.16-.3,1.83h1l1.56-.47-.45.6.87.2v.46l-.46-.2-1.32-.17V23l.54-.19H7.2v1.06l-.55-.24-1.56.24-.41.2,1.58.77.33,1.28h.87l.48-.32h.88l.46.7h.89l.32.32H11M19,20.53H18.4l-.61-.48L16.08,21l-1.76-2.49-.18-.42-1.88.28L12,18.14l-.53.19v1.05l-.35-.17-.29-.16"/><path class="cls-2" d="M38,50.35l.45-.16.67,0,.84,1,.73-.45,1,0,.8-1.54v-.64l.89-.89.58-.32L44,46.05l-.22-.31.66-.65-.54-.55L43.36,44l1.27-1.34V42l-.19-.69-.8-1.4h-.5l-.38-1H40.34L40,38.6l-.28.55-1.21-.29-.55.41H36.65m.19,9.88"/><path class="cls-2" d="M70.38,52.25l-.27-.56V51H69.2l-.63-.41v-.92h-.39L67.91,49l0-.08-.77,0-.23.4h-.44l-.29-.52h-.45l-.23.92.66.19v1l-1,.1-1.8,1.39-.17.5h-.84v1l-.18.42h-.77v.83l1,.27.44.46-.08.6-.9.93-2-1.2v-.47l-2.05.65v-.72l-1.3-.05.66,1v.88l.77.8-.57.56-.51.51-.08,1.41h-.79l-.41.61.32.32-1.32,1.07h1.86v.54l.3.34,1.47.1.18-.37H58v-.38l.57.15.52.53,1.34.1.3-.3.47.56v.66h1l.23.22.43-.17.11-.07v0l.09.11.73.95s.72-.41.75-.41.45.21.49.21l1.67-.39.9-.31.49-.27.48.06L69,64l-.47-.23.29-.52h.36l.11-.58h.57l.27-.77.56-.54h.77v-.59h.37l1.83-1.36,0-.52h-.21l.38-.48.87-1.3v-.46l-.54-.42-.93.42H72.5l-.88-.4-1.24-.44v-.3L69.8,55l-.13-.15-.22-1,.44-.56v-.49l0-.27Z"/><path class="cls-2" d="M28.75,61.72v.34l.46.54-.28.3h.5l-.06,1.2-.62.9-1.18,1.26V67l-.23.24v.47L28.94,69l1.38-.3.57.4.43-.31.35.26.53,0,1,0v-.32l-.07-.23v-.72h.55l.54.29.36.31h1l.41.28v.46h1.09L38,70v-.52h.6l.32.28h.47l.38.41,0,.07-.35.05v.56h.65l.43.3.58.83.45-.11.38-.38.8-.21,1.38.7h1v-.47h.81l1-.62.64.45.62-.07-.34-.5-.41-.42V66.67L48.5,65l.06-.09.75-.75h.95l.75-.75h.41l1.32-1.29h.88l.21.64h.66l1.32-1.07-.32-.32.41-.61h.79l.09-1.41,1.07-1.07-.77-.81v-.87l-.66-1h-.75L55.3,56l-.36-.4-.55.6-.45-.59h-.71L53.15,55l-.23-.22-.09-.09-.28-.86-.45-.25V52.48l-.78-.65-.52-.37h-.34l-.25.37h-.53l-.59-1v-.14L48.3,51l-.23.48-.4-.13-.74,2-.78-1.82h-.34l-.4-.4-.68.59,0,.61-.79,1H42.42L42,53V51.9l-.25-1.25-1,0-.74.44-.84-1-.67,0-.45.17-.35.15v1.67l-1.76,1.59-.45.46.32,1.26h-.93V56l.32.2-.53,1.09h-.5l-.17.66v.15m-4.08.37v.6l-.29,0-.2-.2.16-.16-.31-.32-.37.37-.63.08V60.4l-.33.77v.51h.9"/><polyline class="cls-2" points="33.95 58.14 33.94 57.99 33.55 58.38 33.06 57.99 32.27 57.99 31.71 58.43 30.67 58.43 30.43 58.61 29.87 58.51"/><polyline class="cls-2" points="59.22 12.55 58.03 11.66 56.55 11.22 56.21 10 56.36 8.68 55.94 8.68 55.4 9.77 54.34 10.27 52.84 10 53.25 11.68 52.41 12.64 52.19 14.65 52.16 14.92 50.18 15.22 50.38 16.68 50.21 17.94 49.12 19.13 49.22 20.8 49.6 21.17 49.6 21.17 48.97 21.85 48.97 23.11 50.12 23.97 50.12 24.54 51.1 25.09 51.1 25.65 51.7 26.4 53.18 26.4 53.85 26.69 55.23 26.17 55.23 25.71 56.1 25.71 57.65 27.34 57.22 27.82 58.06 28.66 58.69 28.61 59.24 29.16 60.06 28.3 61.48 28.29 61.48 27.18 62.42 26.21 63.77 25.47 63.99 25.91 65.23 25.89 65.75 26.36 66.33 25.99 67.77 26.96 68.88 27.46 68.88 28.15 68.67 28.64 69.18 28.64 69.54 29.07 69.54 29.42 69.93 29.8 70.9 29.8 71.38 29.51 72.03 28.39 71.5 27.74 71.92 25.29 71.65 24.34 71.63 24.24 72.45 22.36 72.23 21.95 72.61 21.14 72.6 20.14 73.96 18.56 74.53 16.99 73.95 16.99 73.26 16.68 71.5 16.68 71.41 16.68 71.5 16.45 70.9 16.45 70.59 15.53 70.08 15.53 69.7 16.07 68.25 16.07 67.75 15.52 67.13 15.49 67.13 15.94 66.55 15.94 65.82 14.81 65.82 14.39 65.05 13.6 64.43 13.6 64.12 13.4 63.56 13.4 63.07 13.89 62.58 13.89 62.23 13.61 61.27 13.02 59.7 13.5 59.7 13.03 59.22 12.55"/><polyline class="cls-2" points="52.09 52.51 52.09 53.63 52.54 53.88 52.82 54.74 53.13 55.05 53.21 55.69 53.92 55.69 54.37 56.28 54.92 55.67 55.28 56.07 55.66 55.69 56.41 55.69 57.71 55.74 57.71 56.46 59.76 55.81 59.76 56.28 61.78 57.48 62.69 56.55 62.77 55.95 62.33 55.49 61.33 55.22 61.33 54.39 62.1 54.39 62.27 53.98 62.27 52.99 63.12 52.99 63.29 52.49 65.08 51.1 66.12 51 66.12 49.96 65.46 49.77 65.69 48.85 66.15 48.85 66.44 49.37 66.88 49.37 67.11 48.97 67.88 48.92 68.2 48.58 69.14 48.58 69.86 47.89 70.41 47.89 70.31 46.84 70.89 46.27 69.75 45.64 69.75 44.46 68.67 43.99 68.49 43.48 68.49 42.82 69.22 42.82 69.75 42.47 69.75 41.77 69.15 41.17 68.74 41.17 68.74 40.58 68.35 40.58 68.28 39.89 68.74 39.44 68.14 38.9 68.14 38.36 66.59 38.36 66.16 38.73 65.56 38.73 65.2 39.19 65.2 39.68 65.5 39.88 64.6 40.57 63.68 40.78 63.68 40.28 64.49 39.85 64.7 38.89 64.16 38.5 64.08 38.47 64.02 38.55 63.01 39.79 62.24 39.79 61.66 39.29 60.93 39.79 59.98 38.77 59.98 38.42 59.54 38.34 59.09 37.9 58.49 38.14 58.14 37.92 57.72 37.92 56.92 40.64 56.13 39.79 54.7 39.79 54.7 40.45 54.24 40.84 52.59 40.84 51.94 40.57 51.93 39.95 52.54 39.55 52.54 38.57 51.94 37.92 51.11 37.92 50.41 36.35 49.54 36.86 49.06 36.5 48.37 36.5 48.01 36.86 47.26 35.85 46.46 35.85 46.17 36.36 45.3 36.36 44.68 36.96 44.68 37.81 44.27 38.15 43.31 38.15 42.77 38.87 43.16 39.88 43.66 39.88 44.45 41.28 44.65 41.97 44.65 42.62 43.38 43.97 44.46 45.09 43.81 45.74 44.02 46.05 44 46.57 43.96 47.3 43.38 47.62 42.49 48.51 42.49 49.15 41.69 50.69 41.94 51.94 41.94 53.01 42.4 53.31 43.88 53.31 44.68 52.3 44.72 51.69 45.4 51.1 45.79 51.49 46.13 51.49 46.92 53.31 47.65 51.37 48.06 51.49 48.29 51.01 49.08 50.73 49.08 50.73 49.08 50.87 49.67 51.87 50.2 51.87 50.45 51.49 50.79 51.49 51.31 51.87 52.09 52.51"/><polyline class="cls-2" points="52.85 9.99 52.85 7.58 51.96 6.95 50.55 6.92 50.05 7.08 50.01 6 48.96 5.47 48.1 5.58 47.86 4.15 47.34 3.37 46.41 3.59 46.08 4.13 45.28 3.24 44.49 2.61 44.75 2.15 44.23 0.94 41.93 1.61 39.26 2.68 39.02 6.47 38.93 8.03 38.28 9.2 40.02 11.68 39.78 14.73 40.31 15.95 39.69 15.95 40.07 16.63 40.8 16.63 41.71 16.32 41.93 16.55 43.3 16.55 45.18 17.41 47.27 17.12 49.12 19.13 50.21 17.94 50.38 16.68 50.19 15.22 52.16 14.92 52.41 12.64 53.25 11.68 52.85 9.99"/><polyline class="cls-2" points="34.96 20.6 36.72 19.77 37.81 19.77 38.83 18.47 38.41 17.45 39.32 17.45 39.7 15.95 40.33 15.95 39.8 14.73 40.04 11.7 38.3 9.21 36.65 10.42 33.86 10.9 31.68 12.15 31.21 13.86 32.32 14.28 31.55 14.44 30.56 15.43 29.36 15.43 28.8 14.86 26.68 14.86 25.89 14.4 25.04 14.4 24.78 14.64 23.89 13.12 24.32 12.17 23.88 11.82 23.38 11.82 22.35 12.23 21.02 11.46 20.66 11.46 20.66 11.9 21.04 12.28 21.04 12.77 20.83 12.98 21.25 14.39 22.18 15.69 22.18 17.27 22.18 19.53 23.14 20.2 23.14 20.59 22.18 20.59 22.41 21.53 23.01 21.92 23.84 21.27 24.81 21.7 25.8 21.69 26.41 22.17 27.14 21.79 27.14 22.18 27.82 21.79 29.2 21.79 29.28 21.37 29.7 21.37 29.7 22.24 30.23 22.96 31.02 22.96 31.99 21.99 32.63 22.53 32.62 23.28 33.59 24.04 33.9 24.04 34.42 24.58 34.98 24.57 34.98 24.28 34.6 23.43 34.88 23.15 35.34 23.07 35.85 22.56 35.85 21.52 34.96 20.6"/><polygon class="cls-2" points="47.44 25.86 46.37 24.76 45.65 25.16 45.28 24.8 45 25.08 43.81 25.08 44.17 24.27 43.38 23.44 42.41 23.45 41.22 23.86 40.97 22.59 40.38 22.54 39.06 20.46 39.06 19.62 38.82 18.48 37.8 19.77 36.7 19.77 34.94 20.61 35.84 21.52 35.84 22.56 35.32 23.08 34.86 23.16 34.58 23.44 34.96 24.28 34.96 24.57 35.25 24.87 34.95 26.57 33.6 28.53 32.58 28.9 32.58 29.49 31.43 29.05 31.45 29.94 30.59 32.6 31.89 33.78 31.89 34.53 32.73 34.53 33.46 34.08 34.03 34.33 34.03 34.99 34.95 36.22 35.25 36.65 35.25 37.4 36.64 38.3 36.64 39.27 38 39.27 38.55 38.86 39.76 39.15 40.04 38.6 40.34 38.87 42.28 38.87 42.76 38.87 43.3 38.15 44.25 38.15 44.67 37.81 44.67 36.96 45.28 36.36 46.15 36.36 46.44 35.85 47.24 35.85 47.24 33.97 46.73 33.53 46.73 31.99 46.15 31.57 46.41 30.63 46.05 30.05 46.5 29.61 46.5 29.05 45.96 28.3 46.93 27.76 46.93 27.3 46.71 27.09 47.44 26.51 47.44 25.86"/><polyline class="cls-2" points="18.78 28.44 20.17 27.87 21.21 27.87 22.5 26.93 23.6 27.49 24.17 25.8 24.87 25.8 24.51 23.52 24.8 23.12 24.79 21.7 23.82 21.28 23 21.92 22.39 21.54 22.17 20.59 20.72 20.56 20.72 19.84 20.11 19.84 19.81 20.05 19.81 20.61 19.42 20.29 19.21 20.29 18.96 20.54"/><path class="cls-2" d="M11,26.77l.47.46.68.14.8.92.09.24h2.39l0,.3h-1l.2.39h2.06l-.15.27V30l.22-.21.76-.31h.74l.45-.25v-.74m-7.93-9.39h-.79l-.13.63-.83-.82-2.19.36-.86.15v.31l-1.2.16-.3,1.83h1l1.56-.47-.45.6.87.2v.46l-.46-.2-1.32-.17V23l.54-.19H7.2v1.06l-.55-.24-1.56.24-.41.2,1.58.77.33,1.28h.87l.48-.32h.88l.46.7h.89l.32.32H11M19,20.53H18.4l-.61-.48L16.08,21l-1.76-2.49-.18-.42-1.88.28L12,18.14l-.53.19v1.05l-.35-.17-.29-.16"/><path class="cls-2" d="M23.69,27.22l-.09.27-1.1-.56-1.28.94h-1l-1.39.57v.74l-.45.25h-.74l-.76.31-.59.59.82,1.15h.6l.55-.38h1v.26l-.94.12v.6l-.37.36.83.28.4.61-1,1.14v.47l1.64,2v.78h.4l.92.76h.39l.31.31v.34h.71l.62.56.3-.3.34-.13,1-.26v.42l1,0h.72l.52-.67h-.42v-1l-.45-2.47-.35,0L25.26,34H27v-.52h.85l.17-.31h1.28l.16.35,1.09-.89.86-2.66,0-.89,1.15.44V28.9l1-.37,1.35-2,.3-1.71-.29-.3h-.55L33.88,24h-.31l-1-.76v-.76L32,22l-1,1h-.79l-.53-.71v-.88h-.41l-.09.43H27.8l-.68.38V21.8l-.73.37-.61-.48-1,0v1.41l-.29.4.37,2.29h-.71l-.48,1.41"/><polyline class="cls-2" points="36.64 39.27 36.64 38.29 35.25 37.4 35.25 36.65 34.03 34.99 34.03 34.33 33.46 34.08 32.73 34.52 31.89 34.52 31.89 33.78 30.59 32.6 29.5 33.49"/><polyline class="cls-2" points="28.72 61.71 28.72 62.09 29.18 62.63 28.9 62.93 29.4 62.93 29.34 64.13 28.72 65.04 27.54 66.3 27.54 67.04 27.31 67.29 27.31 67.76 27.2 67.82 26.88 68.08 25.97 68.08 25.76 68.23 24.88 67.34 24.88 66.73 23.53 66.73 21.61 65.78 21.61 65.23 21.23 65.23 21.16 65.99 20.45 65.57 21.1 64.21 20.14 63.71 19.77 64.08 19.37 63.68 18.96 63.68 18.62 63.14 19.77 62.6 20.23 61.89"/><polyline class="cls-2" points="20.23 61.89 20.35 61.7 20.38 61.65 20.84 60.79 22.27 54.27"/><polyline class="cls-2" points="25.7 47.44 25.8 48.26 25.58 48.3 24.96 47.01 23.86 45.97 23.65 45.42 23.29 45.87 22.35 52.48 22.92 51.91 23.53 52.32 23.65 52.88 23.17 52.97 22.68 52.86 22.35 53.66 22.27 54.27"/><polyline class="cls-2" points="25.7 47.44 25.57 46.75 25.03 45.93 24.1 45.1 22.87 44.34 22.87 43.58 23.43 43.58 23.35 42.99 23.64 42.99 23.83 42.6 23.83 41.49 23.39 40.75 22.98 40.67 22.98 40.39 23.74 39.78 23.73 39.38 23.76 39.27 24.81 39 24.81 39.43 25.81 39.4 25.81 39.43"/><polyline class="cls-2" points="37.96 50.34 37.61 50.5 37.61 52.16 35.93 53.69"/><polyline class="cls-2" points="25.81 39.4 26.53 39.4 27.05 38.73 26.63 38.73 26.63 37.76 26.18 35.29 25.83 35.24 25.26 33.97 27.04 33.97 27.04 33.45 27.89 33.45 28.06 33.14 29.09 33.14 29.34 33.14 29.5 33.49"/></g></svg>