<?xml version="1.0" encoding="UTF-8"?>
<!-- Generator: Adobe Illustrator 26.0.2, SVG Export Plug-In . SVG Version: 6.00 Build 0)  -->
<svg version="1.1" xmlns="http://www.w3.org/2000/svg" xmlns:xlink="http://www.w3.org/1999/xlink" x="0px" y="0px" viewBox="0 0 80 80" style="enable-background:new 0 0 80 80;" xml:space="preserve">
<style type="text/css">
	.st0{fill:none;stroke:#000091;stroke-width:0.8593;stroke-miterlimit:10;}
	.st1{fill:none;stroke:#000091;stroke-width:0.8593;stroke-linecap:round;stroke-miterlimit:10;}
	.st2{fill:none;stroke:#000091;stroke-width:2;stroke-miterlimit:10;}
	.st3{fill:none;stroke:#E1000F;stroke-width:2;stroke-linecap:round;stroke-linejoin:round;stroke-miterlimit:10;}
	.st4{fill:#FFFFFF;stroke:#E1000F;stroke-linejoin:round;stroke-miterlimit:10;}
	.st5{fill:#E1000F;}
	.st6{fill:#FFFFFF;stroke:#E1000F;stroke-width:1.5347;}
	.st7{fill:#000091;}
	.st8{fill:none;stroke:#E1000F;stroke-width:8.2766;stroke-linecap:round;stroke-linejoin:round;stroke-miterlimit:10;}
	.st9{fill:none;stroke:#EC1C24;stroke-miterlimit:10;}
	.st10{fill:none;stroke:#EC1C24;stroke-miterlimit:10;stroke-dasharray:9.4876,9.4876;}
	.st11{fill:none;stroke:#EC1C24;stroke-miterlimit:10;stroke-dasharray:12;}
	.st12{fill:#2B2E80;}
	.st13{fill:none;stroke:#EC1C24;stroke-miterlimit:10;stroke-dasharray:12.3132,12.3132;}
	.st14{fill:#FFFFFF;stroke:#E1000F;stroke-miterlimit:10;}
	.st15{fill:#FFFFFF;stroke:#E1000F;stroke-width:2;stroke-miterlimit:10;}
	.st16{fill:#EE3F00;}
	.st17{fill:#FFFFFF;stroke:#000091;stroke-width:2;stroke-miterlimit:10;}
	.st18{fill-rule:evenodd;clip-rule:evenodd;fill:#FFFFFF;}
	.st19{fill-rule:evenodd;clip-rule:evenodd;fill:#E1000F;}
	.st20{fill-rule:evenodd;clip-rule:evenodd;fill:#000091;}
	.st21{fill:none;stroke:#000091;stroke-width:2.4147;stroke-linecap:round;stroke-linejoin:round;stroke-miterlimit:10;}
	.st22{fill:none;stroke:#000091;stroke-width:2;stroke-linecap:round;stroke-linejoin:round;stroke-miterlimit:10;}
	.st23{fill:none;stroke:#000091;stroke-width:0.75;stroke-linecap:round;stroke-linejoin:round;stroke-miterlimit:10;}
	.st24{fill:none;stroke:#000091;stroke-linecap:round;stroke-linejoin:round;stroke-miterlimit:10;}
	.st25{fill:none;stroke:#000091;stroke-width:1.5687;stroke-linecap:round;stroke-linejoin:round;stroke-miterlimit:10;}
	.st26{fill:none;stroke:#000091;stroke-miterlimit:10;}
	.st27{fill:none;stroke:#E1000F;stroke-miterlimit:10;}
	.st28{fill:none;stroke:#E1000F;stroke-width:1.758;stroke-linecap:round;stroke-linejoin:round;stroke-miterlimit:10;}
	.st29{fill:#FFFFFF;stroke:#E1000F;stroke-width:2;stroke-linecap:round;stroke-linejoin:round;stroke-miterlimit:10;}
	.st30{fill:#FFFFFF;}
	.st31{fill:none;stroke:#E1000F;stroke-linejoin:round;stroke-miterlimit:10;}
	.st32{fill:none;stroke:#000091;stroke-width:1.0016;stroke-miterlimit:10;}
	.st33{fill:none;stroke:#000091;stroke-width:1.0514;stroke-miterlimit:10;}
	.st34{fill:none;stroke:#000091;stroke-width:0.4898;stroke-miterlimit:10;}
	.st35{fill:none;stroke:#000091;stroke-width:1.0514;stroke-linejoin:round;stroke-miterlimit:10;}
	.st36{fill:none;stroke:#000091;stroke-width:0.5;stroke-miterlimit:10;}
	.st37{fill:none;stroke:#000091;stroke-width:0.25;stroke-miterlimit:10;}
	.st38{fill:none;stroke:#DAD9D4;stroke-miterlimit:10;}
	.st39{fill:none;}
	.st40{fill:#FFCC00;}
	.st41{fill:none;stroke:#FFFFFF;stroke-width:0.2301;stroke-linecap:round;stroke-linejoin:round;stroke-miterlimit:10;}
	.st42{fill:#000091;stroke:#FFFFFF;stroke-width:0.25;stroke-miterlimit:10;}
</style>
<g id="Calque_3">
</g>
<g id="Calque_2">
</g>
<g id="Calque_5">
</g>
<g id="Calque_4">
	<g id="NewGroupe0_26_">
		<g>
			<path class="st7" d="M71.32,58.19h-3.95V47.48h3.95V58.19L71.32,58.19z M73.09,45.7c-0.19-0.19-0.46-0.3-0.74-0.3h-6.03     c-0.27,0-0.54,0.11-0.74,0.3c-0.19,0.19-0.3,0.46-0.3,0.74v12.8c0,0.27,0.11,0.54,0.3,0.74c0.19,0.19,0.46,0.3,0.74,0.3h6.03     c0.27,0,0.54-0.11,0.74-0.3c0.19-0.19,0.3-0.46,0.3-0.74v-12.8C73.4,46.17,73.29,45.9,73.09,45.7L73.09,45.7z"/>
			<path class="st7" d="M9.63,58.19V47.48h3.95v10.71H9.63L9.63,58.19z M14.62,45.4H8.59c-0.27,0-0.54,0.11-0.74,0.3     c-0.19,0.19-0.3,0.46-0.3,0.74v12.8c0,0.27,0.11,0.54,0.3,0.74c0.19,0.19,0.46,0.3,0.74,0.3h6.03c0.27,0,0.54-0.11,0.74-0.3     c0.19-0.19,0.3-0.46,0.3-0.74v-12.8c0-0.27-0.11-0.54-0.3-0.74C15.16,45.51,14.89,45.4,14.62,45.4L14.62,45.4z"/>
			<path class="st7" d="M5.31,38.27l21.33-3.43v3.79H5.31V38.27L5.31,38.27z M26.63,32.74L4.1,36.36c-0.51,0.08-0.87,0.52-0.87,1.03     v2.29c0,0.01,0,0.02,0,0.03c0,0.01,0,0.02,0,0.03v26.53c0,0.57,0.47,1.04,1.04,1.04l0,0c0.11,0,0.22-0.02,0.32-0.05h19     l-7.96,4.34c-0.5,0.27-0.69,0.91-0.42,1.41c0.27,0.5,0.91,0.69,1.41,0.42l0,0l9.89-5.39l9.48-0.04l-1.89,4.48     c-0.22,0.53,0.03,1.14,0.56,1.36c0.53,0.22,1.14-0.03,1.36-0.56l2.23-5.29h4.54l2.13,5.28c0.21,0.53,0.82,0.79,1.35,0.58     c0.53-0.21,0.79-0.82,0.58-1.35l0,0l-1.81-4.49l8.64,0.04c0.13,0,0.26-0.02,0.38-0.07l10.27,5.46c0.51,0.27,1.14,0.08,1.41-0.43     c0.27-0.51,0.08-1.14-0.43-1.41l-7.91-4.21l18.97-0.13c0.1,0.03,0.21,0.05,0.32,0.05c0.57,0,1.04-0.47,1.04-1.04V39.73     c0-0.01,0-0.02,0-0.03c0-0.01,0-0.02,0-0.03v-2.29c0-0.51-0.37-0.95-0.87-1.03l-22.53-3.63l-2.08-0.24H28.72L26.63,32.74z      M75.63,38.64H54.31v-3.79l21.33,3.43V38.64L75.63,38.64z M54.31,65.31v-5.15c0.02,0,0.03,0,0.05,0l0,0h6.92     c0.27,0,0.54-0.11,0.74-0.3c0.19-0.19,0.3-0.46,0.3-0.74v-12.8c0-0.27-0.11-0.54-0.3-0.74c-0.19-0.19-0.46-0.3-0.74-0.3h-6.92     c-0.02,0-0.03,0-0.05,0v-4.58h21.33v24.45L54.31,65.31L54.31,65.31z M26.63,58.09h-6.09V47.38h6.09V58.09L26.63,58.09z      M42.55,65.89H38.6V45.81h3.95V65.89L42.55,65.89z M54.31,47.37c0.02,0,0.03,0,0.05,0h5.88v10.71h-5.88c-0.02,0-0.03,0-0.05,0     V47.37L54.31,47.37z M52.23,34.58v5.1v0.05v26.21l-7.59-0.04V44.77c0-0.27-0.11-0.54-0.3-0.74c-0.19-0.19-0.46-0.3-0.74-0.3     h-6.03c-0.27,0-0.54,0.11-0.74,0.3c-0.19,0.19-0.3,0.46-0.3,0.74V65.9l-7.8,0.04V40.25c0,0,0,0,0,0l0,0v-0.57v-5.1H52.23     L52.23,34.58z M5.31,65.16V40.72h21.33v4.58h-7.13c-0.27,0-0.54,0.11-0.74,0.3c-0.19,0.19-0.3,0.46-0.3,0.74v12.8     c0,0.27,0.11,0.54,0.3,0.74c0.19,0.19,0.46,0.3,0.74,0.3h7.13v4.99H5.31L5.31,65.16z"/>
		</g>
	</g>
	<polygon class="st5" points="50.17,15.5 49.57,23.73 55.35,26.04 54.14,17.14  "/>
	<polygon class="st7" points="41.07,9.54 41.3,21.55 45.04,23.84 45.04,11.18  "/>
	<path class="st7" d="M57.2,23.93L57.2,23.93c-0.17-0.91-0.4-1.57-0.59-2.13c-0.1-0.28-0.18-0.53-0.25-0.8   c-0.07-0.27-0.14-0.55-0.19-0.88v0c-0.05-0.34-0.09-0.75-0.09-1.22c0-0.72,0.09-1.59,0.38-2.61c0.09-0.33,0.01-0.69-0.21-0.96   c-0.23-0.26-0.57-0.4-0.91-0.36c-0.52,0.06-1.01,0.09-1.45,0.09c-0.98,0-1.76-0.13-2.4-0.32c-0.64-0.19-1.13-0.43-1.52-0.67   c-0.51-0.31-0.93-0.67-1.34-1.08c-0.3-0.31-0.6-0.64-0.91-1c-0.47-0.53-0.97-1.11-1.61-1.66c-0.64-0.56-1.42-1.09-2.39-1.52   c-0.88-0.39-1.69-0.6-2.31-0.72c-0.03-0.01-0.06-0.01-0.09-0.01V7.53c0-0.57-0.47-1.04-1.04-1.04c-0.57,0-1.04,0.47-1.04,1.04v26.2   l2.08-0.01v-9.97c0.93,0.38,2.1,0.8,3.48,1.16c1.7,0.45,2.96,0.62,4.04,0.79c0.54,0.09,1.03,0.18,1.53,0.3   c0.5,0.13,1.01,0.29,1.58,0.52l0,0c0.94,0.39,2.24,1.06,3.67,2.32c0.29,0.25,0.69,0.33,1.05,0.19c0.36-0.14,0.62-0.46,0.67-0.84   c0.06-0.49,0.12-1.1,0.12-1.8C57.43,25.68,57.37,24.84,57.2,23.93z M52.73,24.62c-0.67-0.28-1.28-0.47-1.87-0.62   c-0.44-0.11-0.87-0.19-1.29-0.27c-0.63-0.11-1.26-0.2-1.94-0.32c-0.68-0.12-1.43-0.27-2.32-0.5c-1.53-0.41-2.79-0.89-3.71-1.28   c-0.1-0.04-0.2-0.07-0.31-0.08V10.21c0.45,0.1,0.99,0.26,1.56,0.51c0.69,0.31,1.23,0.66,1.7,1.04c0.35,0.29,0.67,0.6,0.98,0.93   c0.46,0.49,0.91,1.04,1.43,1.59c0.52,0.55,1.13,1.1,1.91,1.58c0.53,0.32,1.2,0.65,2.03,0.89c0.83,0.24,1.82,0.4,2.98,0.4   c0.08,0,0.17,0,0.26,0C54.04,17.78,54,18.37,54,18.9c0,0.58,0.05,1.1,0.11,1.53v0c0.06,0.42,0.15,0.79,0.24,1.13   c0.07,0.25,0.14,0.48,0.22,0.7c0.11,0.33,0.22,0.63,0.32,0.95c0.1,0.32,0.19,0.67,0.27,1.11l0,0c0.12,0.61,0.17,1.19,0.19,1.72   C54.35,25.37,53.45,24.92,52.73,24.62L52.73,24.62z"/>
</g>
<g id="Calque_6">
</g>
</svg>