<svg xmlns="http://www.w3.org/2000/svg" viewBox="0 0 80 80"><defs><style>.cls-1{fill:#000091;}.cls-2,.cls-3,.cls-4,.cls-5,.cls-6,.cls-7,.cls-8,.cls-9{fill:none;}.cls-2,.cls-4{stroke:#e1000f;}.cls-2,.cls-3,.cls-5,.cls-6,.cls-7,.cls-9{stroke-miterlimit:10;}.cls-3,.cls-5,.cls-6,.cls-7,.cls-8,.cls-9{stroke:#000091;}.cls-4,.cls-8{stroke-linejoin:round;}.cls-5{stroke-width:1px;}.cls-6,.cls-8{stroke-width:1.05px;}.cls-7{stroke-width:0.5px;}.cls-9{stroke-width:0.25px;}.cls-10{fill:#e1000f;}</style></defs><g id="Calque_4" data-name="Calque 4"><rect class="cls-1" x="23.25" y="40" width="2.16" height="21.95"/><rect class="cls-1" x="32.34" y="40" width="2.16" height="21.95"/><rect class="cls-1" x="43.96" y="40" width="2.16" height="21.95"/><rect class="cls-1" x="53.11" y="40" width="2.16" height="21.95"/><line class="cls-2" x1="32.45" y1="62.72" x2="46.06" y2="62.72"/><line class="cls-3" x1="46.58" y1="62.72" x2="59.3" y2="62.72"/><line class="cls-3" x1="19.04" y1="62.72" x2="31.77" y2="62.72"/><line class="cls-2" x1="31.15" y1="64.58" x2="47.36" y2="64.58"/><polygon class="cls-4" points="31.06 66.11 14.87 78.24 66.01 78.24 47.35 66.11 31.06 66.11"/><rect class="cls-5" x="26.39" y="18.14" width="5.95" height="15.12"/><path class="cls-6" d="M39.86,18.14h.28A2.83,2.83,0,0,1,43,21V34.79a0,0,0,0,1,0,0H37a0,0,0,0,1,0,0V21A2.83,2.83,0,0,1,39.86,18.14Z"/><path class="cls-7" d="M38.7,47.2h1.44A2.83,2.83,0,0,1,43,50v11.3a0,0,0,0,1,0,0H35.86a0,0,0,0,1,0,0V50A2.83,2.83,0,0,1,38.7,47.2Z"/><rect class="cls-5" x="47.04" y="18.14" width="5.95" height="15.12"/><polygon class="cls-8" points="40 3.79 22.43 11.66 56.88 11.66 40 3.79"/><line class="cls-8" x1="21.84" y1="36.51" x2="56.59" y2="36.51"/><line class="cls-8" x1="23.25" y1="38.42" x2="55.27" y2="38.42"/><line class="cls-8" x1="23.25" y1="14.9" x2="54.74" y2="14.9"/><line class="cls-3" x1="47.79" y1="64.58" x2="64.56" y2="64.58"/><line class="cls-3" x1="13.92" y1="64.58" x2="30.69" y2="64.58"/><rect class="cls-1" x="22.82" y="60.39" width="2.91" height="1.72"/><rect class="cls-1" x="31.97" y="60.39" width="2.91" height="1.72"/><rect class="cls-1" x="43.58" y="60.39" width="2.91" height="1.72"/><rect class="cls-1" x="52.73" y="60.39" width="2.91" height="1.72"/><line class="cls-7" x1="55.27" y1="17.14" x2="55.27" y2="34.79"/><line class="cls-7" x1="23.86" y1="17.14" x2="23.86" y2="34.79"/><line class="cls-9" x1="52.03" y1="55.87" x2="52.03" y2="57.54"/><polygon class="cls-1" points="51.52 52.52 52.16 55.86 51.04 56.26 51.52 52.52"/><line class="cls-9" x1="51.18" y1="56.13" x2="51.18" y2="57.81"/><line class="cls-9" x1="51.88" y1="60.08" x2="51.88" y2="62.24"/><path class="cls-10" d="M52.16,57.33v3.34a10.57,10.57,0,0,1-1.12-1,10.09,10.09,0,0,1,0-1.91Z"/><line class="cls-9" x1="26.55" y1="55.87" x2="26.55" y2="57.54"/><polygon class="cls-1" points="27.05 52.52 26.42 55.86 27.53 56.26 27.05 52.52"/><line class="cls-9" x1="27.4" y1="56.13" x2="27.4" y2="57.81"/><line class="cls-9" x1="26.7" y1="60.08" x2="26.7" y2="62.24"/><path class="cls-10" d="M26.42,57.33v3.34a10.61,10.61,0,0,0,1.11-1,10.09,10.09,0,0,0,0-1.91Z"/></g></svg>