<svg xmlns="http://www.w3.org/2000/svg" viewBox="0 0 80 80"><defs><style>.cls-1{fill:#000091;}.cls-2{fill:none;stroke:#fff;stroke-linecap:round;stroke-linejoin:round;stroke-width:0.23px;}</style></defs><g id="Calque_6" data-name="Calque 6"><polygon class="cls-1" points="43.07 19.19 42.7 18.79 42.33 18.79 42.33 18.79 42.33 18.22 43.08 18.32 43.49 17.98 43.77 18.55 43.77 19.57 43.77 19.59 43.41 19.19 43.07 19.19"/><polyline class="cls-1" points="42.33 19.6 43.01 19.52 43.06 19.19 42.7 18.79 42.25 18.79 41.73 19.01 41.73 19.29 42.33 19.6"/><polyline class="cls-1" points="42.32 20.18 43.41 20.29 43.77 19.93 43.77 19.59 43.77 19.59 43.41 19.19 43.07 19.19 43.01 19.51 42.33 19.59 42.33 20.18"/><polygon class="cls-1" points="42.32 20.18 41.58 19.85 41.36 19.37 41.65 18.59 42.33 18.22 42.33 18.79 42.34 18.79 42.25 18.79 41.73 19.01 41.73 19.29 42.33 19.59 42.33 20.18 42.32 20.18"/><polyline class="cls-1" points="42.6 23.44 43.39 24.28 43.03 25.09 44.22 25.09 44.5 24.81 44.87 25.17 45.59 24.77 45.73 24.43 46.02 24.42 46.02 23.11 48.21 23.11 48.21 21.85 48.84 21.16 48.46 20.8 48.36 19.13 46.5 17.12 44.41 17.41 43.78 17.17 43.5 17.98 43.78 18.56 43.78 19.94 43.17 20.55 43.17 22.47 43.47 22.78 42.66 23.44"/><polyline class="cls-1" points="40.18 22.59 40.46 21.49 40.78 21.17 40.57 20.71 41.58 19.85 41.36 19.37 41.65 18.59 40.99 17.89 39.77 17.75 38.5 17.45 37.59 17.45 38.02 18.47 38.26 19.61 38.26 20.46 39.59 22.54 40.18 22.59"/><polyline class="cls-1" points="40.18 22.6 40.46 21.5 40.78 21.18 40.57 20.72 41.58 19.85 41.59 19.85 42.32 20.2 43.41 20.3 43.41 20.31 43.17 20.55 43.17 22.47 43.47 22.78 42.65 23.44 42.6 23.44 41.62 23.46 40.43 23.87 40.18 22.6"/><polyline class="cls-1" points="38.51 17.45 39.79 17.75 41 17.9 41.66 18.6 42.34 18.22 43.1 18.33 43.51 17.98 43.79 17.16 42.53 16.55 41.15 16.55 40.93 16.31 40.01 16.63 39.28 16.63 38.9 15.95 38.51 17.45"/><g id="_62_-_copie" data-name="62 - copie"><g id="_59_-_copie_2" data-name="59 - copie 2"><polygon class="cls-1" points="38.48 2.68 41.15 1.6 41.77 3.34 42.68 3.57 42.42 4.18 44.45 4.94 44.59 4.5 45.02 4.66 44.8 5.48 46.21 6.22 45.73 6.63 46.08 7.65 46.73 7.97 46.4 9.47 46.4 9.47 45.17 9.68 44.26 9.03 42.62 8.99 42.66 8.02 41.15 8.15 40.11 7.18 38.23 6.46 38.48 2.68"/></g></g><polyline class="cls-1" points="46.73 9.77 49.76 9.42 52.1 9.99 52.51 11.68 51.66 12.64 51.42 14.92 49.43 15.22 49.63 16.68 49.46 17.94 48.37 19.13 46.51 17.12 45.84 15.32 46.73 14.38 46.47 12.18 46.27 10.99 46.73 10.44 46.73 9.77"/><g id="_59_-_copie" data-name="59 - copie"><polygon class="cls-1" points="38.14 8.02 37.49 9.19 39.24 11.68 40.82 12.39 42.86 12.69 44.13 13.26 45.36 12.35 46.47 12.18 46.27 10.99 46.73 10.44 46.73 9.77 46.4 9.47 45.17 9.68 44.26 9.03 42.62 8.99 42.66 8.02 41.15 8.15 40.11 7.18 38.23 6.46 38.14 8.02"/></g><g id="_59_-_copie_3" data-name="59 - copie 3"><polygon class="cls-1" points="43.46 0.93 41.15 1.6 41.77 3.34 42.68 3.57 42.42 4.18 44.45 4.94 44.59 4.5 45.02 4.66 44.8 5.48 46.21 6.22 45.73 6.63 46.08 7.65 46.73 7.97 46.4 9.47 46.73 9.77 49.76 9.42 52.1 9.99 52.1 7.58 51.21 6.95 49.8 6.91 49.3 7.08 49.26 6 48.2 5.46 47.34 5.57 47.1 4.14 46.58 3.36 45.65 3.58 45.32 4.12 44.52 3.23 43.72 2.6 43.98 2.14 43.46 0.93"/></g><g id="_02_ok_-_copie" data-name="02 ok - copie"><polyline class="cls-1" points="55.67 8.67 55.21 8.67 54.67 9.77 53.6 10.27 52.1 9.99 52.51 11.68 51.66 12.64 51.45 14.65 52.31 14.7 53.8 15.61 56.52 15.86 56.98 14.61 57.03 13.14 58.12 13.2 58.5 12.55 57.31 11.66 55.82 11.22 55.48 9.99 55.63 8.67"/></g><polygon class="cls-1" points="48.47 20.8 49.41 21.7 50.46 21.8 51.9 20.37 53.08 20.37 53.08 21.06 53.62 21.58 55.45 21.58 56.66 20.33 56.66 19.82 56.06 19.22 56.06 18.37 56.63 17.8 56.66 15.86 56.52 15.86 53.8 15.61 52.31 14.7 51.45 14.65 51.42 14.92 49.43 15.22 49.63 16.68 49.46 17.94 48.37 19.13 48.47 20.8"/><polygon class="cls-1" points="58.5 12.55 58.98 13.03 58.98 14.48 60.02 14.14 60.66 14.78 60.66 16.62 60.98 17.31 60.98 19.21 60.8 20 60.8 21.73 59.26 22.37 56.66 20.9 56.66 20.33 56.66 19.82 56.06 19.22 56.06 18.37 56.63 17.8 56.66 15.86 56.52 15.86 56.98 14.61 57.03 13.14 58.12 13.2 58.5 12.55"/><polygon class="cls-1" points="61.64 21.73 62.03 22.81 62.97 22.81 65.47 21.8 66.9 22.3 68.19 21.17 67.27 20.26 64.63 19.14 64.15 19.14 63.77 18.76 63.77 17.93 62.76 17.93 62.02 17.18 61.94 15.21 61.52 14.8 61.52 13.61 60.55 13.01 58.98 13.5 58.98 14.48 60.02 14.14 60.66 14.78 60.66 16.62 60.98 17.31 60.98 19.21 60.8 20 60.8 21.73 61.64 21.73"/><polygon class="cls-1" points="34.16 24.58 34.46 24.88 34.15 26.59 32.8 28.54 31.77 28.91 31.77 29.5 30.62 29.06 30.31 29.38 29.11 28.68 28.58 28.68 28.22 28.32 27.55 28.31 27.14 27.3 27.44 26.4 27.99 26.4 27.72 25.52 28.24 25.52 28.24 24.63 28.84 24.27 28.84 22.97 29.4 22.97 30.2 22.97 31.17 22 31.8 22.54 31.79 23.29 32.77 24.05 33.08 24.05 33.61 24.59 34.16 24.58"/><polygon class="cls-1" points="40.44 23.91 40.18 24.85 39.69 25.47 38.62 25.47 37.54 26.05 37.54 26.33 36.68 26.45 35.7 25.88 35.7 25.41 35 25.41 34.46 24.88 34.16 24.58 34.16 24.29 33.78 23.44 34.06 23.16 34.53 23.09 35.04 22.57 35.04 21.53 34.15 20.61 35.91 19.78 37.01 19.78 38.03 18.48 38.28 19.62 38.28 20.47 39.6 22.55 40.2 22.6 40.45 23.87 40.44 23.91"/><polygon class="cls-1" points="18.97 20.61 18.58 20.29 18.37 20.29 18.11 20.54 18.94 20.95 19.18 21.17 19.42 21.37 18.99 22.1 18.99 23.33 17.93 23.29 17.23 24.24 17.23 25.52 17.79 25.54 18.23 26.11 17.94 26.49 17.94 28.45 19.32 27.88 20.38 27.88 21.67 26.94 22.77 27.5 23.34 25.81 24.05 25.81 23.68 23.52 23.97 23.13 23.96 21.71 22.99 21.28 22.16 21.93 21.55 21.54 21.33 20.6 19.88 20.57 19.88 19.84 19.27 19.84 18.97 20.06 18.97 20.61"/><polygon class="cls-1" points="31.56 14.27 30.74 14.44 29.75 15.43 28.55 15.43 27.98 14.86 25.86 14.86 25.07 14.4 24.21 14.4 23.95 14.65 23.95 15.46 24.57 16.09 24.96 16.09 24.96 16.45 25.29 16.78 25.29 17.37 24.56 18.08 24.18 18.08 24.18 18.52 23.7 19.01 24.06 19.37 24.67 19.37 25.23 19.68 26.04 18.85 28.41 18.85 28.91 19.29 30.23 18.33 32.08 18.33 32.08 16.31 31.56 15.73 31.56 14.27"/><polygon class="cls-1" points="25.23 19.68 25.76 20.28 25.74 20.94 24.98 21.7 23.98 21.71 23.01 21.28 22.18 21.93 21.57 21.54 21.35 20.6 22.3 20.6 22.3 20.21 21.35 19.54 21.35 17.27 21.35 15.7 20.41 14.4 19.99 12.99 20.2 12.78 20.2 12.28 19.82 11.9 19.82 11.47 20.19 11.47 21.51 12.23 22.55 11.82 23.05 11.82 23.5 12.17 23.06 13.13 23.95 14.65 23.95 15.46 24.57 16.09 24.96 16.09 24.96 16.45 25.29 16.78 25.29 17.37 24.56 18.08 24.18 18.08 24.18 18.52 23.7 19.01 24.06 19.37 24.67 19.37 25.23 19.68"/><polygon class="cls-1" points="34.16 20.61 35.06 21.53 35.06 22.57 34.55 23.09 34.08 23.16 33.8 23.44 34.18 24.29 34.18 24.58 33.63 24.59 33.1 24.05 32.79 24.05 31.81 23.29 31.82 22.54 31.18 22 30.21 22.97 29.42 22.97 28.89 22.25 28.89 21.38 28.47 21.38 28.38 21.8 27 21.8 26.32 22.19 26.32 21.8 25.58 22.18 24.98 21.7 25.74 20.94 25.76 20.28 25.23 19.68 26.04 18.85 28.41 18.85 28.91 19.29 30.23 18.33 32.08 18.33 32.08 18.69 33.04 18.71 33.06 19.27 33.96 19.84 34.16 20.61"/><polyline class="cls-1" points="39.02 14.75 39.26 11.71 37.51 9.22 35.85 10.42 33.07 10.91 30.87 12.15 30.41 13.86 31.56 14.3 32.04 14.3 32.58 13.97 33.19 14.57 34.22 14.57 34.8 14.92 34.8 15.59 35.22 15.98 36.14 15.06 36.75 15.06 37.4 14.3 38.59 14.67 39.02 14.67"/><polygon class="cls-1" points="39.02 14.65 38.59 14.65 37.4 14.27 36.75 15.03 36.14 15.03 35.22 15.95 34.8 15.56 34.8 14.89 34.22 14.55 33.19 14.55 32.58 13.95 32.04 14.27 31.56 14.27 31.56 15.73 32.08 16.3 32.08 18.69 33.04 18.71 33.06 19.27 33.96 19.84 34.16 20.61 35.93 19.78 37.03 19.78 38.05 18.48 37.62 17.46 38.53 17.46 38.92 15.95 39.55 15.95 39.02 14.73 39.02 14.65"/><polygon class="cls-1" points="46.51 17.12 44.42 17.41 42.53 16.56 41.15 16.56 40.93 16.32 40.02 16.63 39.28 16.63 38.9 15.95 39.54 15.95 39 14.73 39.24 11.68 40.82 12.39 42.86 12.69 44.13 13.26 45.36 12.35 46.47 12.18 46.73 14.38 45.84 15.32 46.51 17.12"/><polyline class="cls-1" points="67.12 71.44 71.28 74.52 72.34 74.52 72.38 74.25 73.12 72.81 72.53 68.81 71.96 65.58 71.16 65.58 71.16 68.21 70.52 68.04 69.82 68.04 67.12 70.42 67.12 71.44"/><polyline class="cls-1" points="67.12 71.44 71.28 74.52 72.34 74.52 71.77 78.92 71.75 79.07 70.77 78.88 68.77 77.3 69.26 76.53 68.03 76.32 68.42 74.74 67.64 74.56 67.82 73.3 67.12 72.91 67.12 71.44"/><polygon class="cls-1" points="45.61 24.77 46.69 25.87 46.69 26.52 45.95 27.09 46.17 27.31 46.17 27.77 45.2 28.31 45.74 29.06 45.74 29.62 45.29 30.06 44.17 30.1 42.98 29.28 42.57 29.5 41.66 28.73 40.57 28.73 40.31 28.89 39.73 28.74 39.37 29.06 38.64 28.17 38.35 28.27 37.85 27.6 38.28 27.17 38.03 26.34 37.54 26.05 38.62 25.47 39.69 25.47 40.18 24.85 40.45 23.87 41.64 23.46 42.61 23.44 43.4 24.28 43.04 25.09 44.23 25.09 44.51 24.81 44.88 25.17 45.61 24.77"/><polygon class="cls-1" points="48.22 23.11 49.37 23.98 49.37 24.54 50.36 25.09 50.36 25.66 50.95 26.41 52.44 26.41 53.11 26.7 53.11 28.02 52.01 30.8 52.24 31.33 51.76 31.82 50.01 30.97 48.85 29.86 48.85 30.18 47.29 30.18 46.69 29.7 45.74 29.62 45.74 29.06 45.2 28.31 46.17 27.77 46.17 27.31 45.95 27.09 46.69 26.52 46.69 25.87 45.61 24.77 45.75 24.43 46.03 24.42 46.03 23.11 48.22 23.11"/><polygon class="cls-1" points="54.9 21.58 54.9 22.28 56.12 23.55 56.12 24.91 55.38 24.99 55.38 25.72 54.5 25.72 54.5 26.18 53.11 26.7 52.44 26.41 50.95 26.41 50.36 25.66 50.36 25.09 49.37 24.54 49.37 23.98 48.22 23.11 48.22 21.85 48.85 21.17 49.41 21.7 50.46 21.8 51.9 20.37 53.08 20.37 53.08 21.06 53.62 21.58 54.9 21.58"/><polygon class="cls-1" points="58.96 22.72 59.24 23.11 59.51 22.99 60.64 24.01 60.64 25.05 61.71 26.21 60.76 27.19 60.76 28.3 59.34 28.3 58.52 29.17 57.97 28.61 57.34 28.67 56.49 27.83 56.93 27.34 55.38 25.72 55.38 24.99 56.12 24.91 56.12 23.55 54.9 22.28 54.9 21.58 55.45 21.58 56.66 20.33 56.66 20.9 59.26 22.37 58.96 22.72"/><polygon class="cls-1" points="52.36 32.1 52.84 32.1 52.84 32.9 55.56 34.79 58.56 34.06 58.85 33.33 59.81 32.49 59.85 31.43 59.85 30.74 59.49 30.74 59.25 29.88 59.46 29.88 59.8 29.5 59.66 28.87 58.8 28.87 58.52 29.17 57.97 28.61 57.34 28.67 56.49 27.83 56.93 27.34 55.38 25.72 54.5 25.72 54.5 26.18 53.11 26.7 53.11 28.02 52.01 30.8 52.24 31.33 52.36 32.1"/><polygon class="cls-1" points="68.71 22.89 67.59 25.64 67.51 26.56 67.07 26.97 65.64 26 65.05 26.37 64.53 25.9 63.28 25.91 63.06 25.48 61.71 26.21 60.64 25.05 60.64 24.01 59.51 22.99 59.24 23.11 58.96 22.72 59.26 22.37 60.8 21.73 61.64 21.73 62.03 22.81 62.97 22.81 65.47 21.8 66.9 22.3 68.19 21.17 68.19 22.62 68.76 22.81 68.71 22.89"/><polygon class="cls-1" points="67.03 27.02 66.65 27.56 67.03 29.06 66.16 29.06 65.67 29.54 64.47 29.54 62.78 31.15 62.23 31.15 61.04 31.74 60.22 31.74 59.85 31.43 59.85 30.74 59.49 30.74 59.25 29.88 59.46 29.88 59.8 29.5 59.66 28.87 58.8 28.87 59.34 28.3 60.76 28.3 60.76 27.19 61.71 26.21 63.06 25.48 63.28 25.91 64.53 25.9 65.05 26.37 65.64 26 67.07 26.97 67.03 27.02"/><polygon class="cls-1" points="61.04 31.74 61.71 32.57 61.32 33.44 62.6 33.98 62.94 34.9 63.22 34.9 63.98 35.55 63.24 36.24 63.5 36.55 63.22 36.92 63.54 37.24 65.34 35.56 65.34 34.02 65.81 33.71 66.26 33.71 67.91 31.6 67.91 31.21 68.17 31.21 68.51 30.56 67.5 30.56 67.78 30.12 67.59 29.27 67.03 29.06 66.16 29.06 65.67 29.54 64.47 29.54 62.78 31.15 62.23 31.15 61.04 31.74"/><polygon class="cls-1" points="68.85 29.43 68.13 29.43 68.13 29.81 67.78 30.12 67.59 29.27 67.03 29.06 66.65 27.56 67.07 26.97 68.19 27.46 68.19 28.15 67.98 28.65 68.49 28.65 68.85 29.08 68.85 29.43"/><polygon class="cls-1" points="58.58 34.12 58.58 34.54 59.62 35.06 59.1 35.5 59.76 36.87 59.33 37.35 59.33 37.82 59.56 38.12 59.24 38.44 59.24 38.79 60.19 39.8 60.92 39.31 61.51 39.8 62.28 39.8 63.36 38.48 63.8 37.54 63.54 37.24 63.22 36.92 63.5 36.55 63.24 36.24 63.98 35.55 63.22 34.9 62.94 34.9 62.6 33.98 61.32 33.44 61.71 32.57 61.04 31.74 60.22 31.74 59.85 31.43 59.81 32.49 58.85 33.33 58.56 34.06 58.58 34.12"/><polygon class="cls-1" points="52.84 32.9 51.86 33.26 51.86 34.95 52.14 35.23 52.14 35.92 51.45 35.92 50.82 36.6 50.27 36.15 49.65 36.36 50.35 37.94 51.18 37.94 51.78 38.59 51.78 39.57 51.17 39.97 51.18 40.58 51.83 40.86 53.49 40.86 53.95 40.47 53.95 39.8 55.38 39.8 56.18 40.66 56.97 37.94 57.39 37.94 57.75 38.16 58.35 37.92 58.8 38.36 59.24 38.44 59.56 38.12 59.33 37.82 59.33 37.35 59.76 36.87 59.1 35.5 59.62 35.06 58.58 34.54 58.58 34.12 58.56 34.06 55.56 34.79 52.84 32.9"/><polygon class="cls-1" points="45.65 30.64 45.38 31.59 45.97 32 45.97 33.55 46.48 33.98 46.48 35.86 47.24 36.88 47.6 36.52 48.29 36.52 48.77 36.88 49.65 36.36 50.27 36.15 50.82 36.6 51.45 35.92 52.14 35.92 52.14 35.23 51.86 34.95 51.86 33.26 52.84 32.9 52.84 32.1 52.36 32.1 52.24 31.33 51.76 31.82 50.01 30.97 48.85 29.86 48.85 30.18 47.29 30.18 46.69 29.7 45.74 29.62 45.29 30.06 45.65 30.64"/><polygon class="cls-1" points="41.87 29.06 41.26 29.67 41.77 30.25 41.77 30.95 41.09 31.05 41.09 31.97 40.14 31.97 39.26 33.15 40.71 33.15 41.26 34.95 40.71 35.49 41.5 37.13 41.5 38.89 41.98 38.89 42.52 38.16 43.48 38.16 43.9 37.83 43.9 36.98 44.52 36.37 45.38 36.37 45.68 35.86 46.48 35.86 46.48 33.98 45.97 33.55 45.97 32 45.38 31.59 45.65 30.64 45.29 30.06 44.17 30.1 42.98 29.28 42.57 29.5 41.96 28.98 41.87 29.06"/><polygon class="cls-1" points="50.44 40.45 50.75 40.6 50.75 42.37 49.96 42.72 49.47 42.23 48.79 42.23 48.42 41.86 47.19 41.86 45.85 41.27 45.85 40.3 45.2 40.3 44.18 41.3 43.67 41.3 42.87 39.9 42.37 39.9 41.98 38.89 42.52 38.16 43.48 38.16 43.9 37.83 43.9 36.98 44.52 36.37 45.38 36.37 45.68 35.86 46.48 35.86 47.24 36.88 47.6 36.52 48.29 36.52 48.77 36.88 49.65 36.36 50.35 37.94 51.18 37.94 51.78 38.59 51.78 39.57 51.17 39.97 50.44 40.45"/><polygon class="cls-1" points="32.8 28.54 34.15 28.58 34.15 29.29 34.64 29.05 35.66 30.49 35.66 31.59 36.22 31.66 36.71 32.61 38.53 31.94 39.74 32.51 40.14 31.97 41.09 31.97 41.09 31.05 41.77 30.95 41.77 30.25 41.26 29.67 41.96 28.98 41.66 28.73 40.57 28.73 40.31 28.89 39.73 28.74 39.37 29.06 38.64 28.17 38.35 28.27 37.85 27.6 38.28 27.17 38.03 26.34 37.54 26.05 37.54 26.33 36.68 26.45 35.7 25.88 35.7 25.41 35 25.41 34.46 24.88 34.15 26.59 32.8 28.54"/><polygon class="cls-1" points="36.8 32.77 36.78 33.66 36.33 34.09 35.85 34.09 35.26 34.43 34.95 36.15 34.15 36.24 34.46 36.67 34.46 37.42 35.85 38.31 35.85 39.29 37.21 39.29 37.76 38.88 38.98 39.17 39.26 38.62 39.56 38.89 41.5 38.89 41.5 37.13 40.71 35.49 41.26 34.95 40.71 33.15 39.26 33.15 39.74 32.51 38.53 31.94 36.71 32.61 36.8 32.77"/><polygon class="cls-1" points="30.64 29.95 29.78 32.61 31.09 33.79 31.09 34.54 31.93 34.54 32.66 34.09 33.24 34.34 33.24 35.01 34.15 36.24 34.95 36.15 35.26 34.43 35.85 34.09 36.33 34.09 36.78 33.66 36.8 32.77 36.22 31.66 35.66 31.59 35.66 30.49 34.64 29.05 34.15 29.29 34.15 28.58 32.8 28.54 31.77 28.91 31.77 29.5 30.62 29.06 30.64 29.95"/><polygon class="cls-1" points="29.78 32.61 28.69 33.51 29.34 35.15 29.34 37.04 29.53 37.47 29.05 38.06 29.05 38.95 29.54 39.56 30.25 39.59 29.78 40.62 30.3 41.4 31.55 41.78 31.86 41.28 32.31 41.6 32.9 41.24 33.72 41.24 33.72 40.46 35.85 39.29 35.85 38.31 34.46 37.42 34.46 36.67 33.24 35.01 33.24 34.34 32.66 34.09 31.93 34.54 31.09 34.54 31.09 33.79 29.78 32.61"/><polygon class="cls-1" points="24.43 33.98 23.61 33.84 22.36 33.16 21.75 33.52 21.82 34.16 21.34 34.16 21.34 33.37 20.7 33.56 20.7 34.46 21.03 34.64 20.72 34.96 19.7 34.56 19.7 34.23 19.22 34.22 18.28 33.34 17.28 34.48 17.28 34.96 18.93 36.97 18.93 37.75 19.32 37.75 20.25 38.5 20.64 38.5 20.95 38.82 20.95 39.16 21.66 39.16 22.29 39.72 22.59 39.41 22.93 39.29 23.98 39.02 23.98 39.45 24.99 39.42 25.71 39.42 26.23 38.75 25.81 38.75 25.81 37.77 25.36 35.31 25 35.26 24.43 33.98"/><polygon class="cls-1" points="27.14 27.76 26.61 27.76 26.3 28.07 25.47 28.07 24.52 27.56 22.86 27.23 22.77 27.5 22.71 27.82 23 28.11 23 28.75 23.87 29.17 23.04 29.17 23.04 29.71 24.13 29.86 24.13 30.8 23.08 30.8 22.05 31.24 22.39 31.79 22.82 31.79 22.89 32.39 22.53 32.61 22.53 32.93 23.17 33.28 23.13 33.57 23.61 33.84 24.43 33.98 26.22 33.98 26.22 33.47 27.07 33.47 27.24 33.16 28.52 33.16 28.69 33.51 29.78 32.61 30.64 29.95 30.62 29.06 30.31 29.38 29.11 28.68 28.58 28.68 28.22 28.32 27.55 28.31 27.32 27.73 27.14 27.76"/><polygon class="cls-1" points="27.32 27.73 27.14 27.76 26.61 27.76 26.3 28.07 25.47 28.07 24.52 27.56 22.86 27.23 23.34 25.81 24.05 25.81 23.68 23.52 23.97 23.13 23.96 21.71 24.96 21.7 25.57 22.18 26.3 21.8 26.3 22.19 26.98 21.8 28.36 21.8 28.45 21.38 28.87 21.38 28.87 22.25 29.4 22.97 29.4 22.97 28.84 22.97 28.84 24.27 28.24 24.63 28.24 25.52 27.72 25.52 27.99 26.4 27.44 26.4 27.14 27.3 27.32 27.73"/><polygon class="cls-1" points="17.94 28.59 17.94 29.19 17.49 29.44 16.75 29.44 15.98 29.75 15.39 30.34 16.21 31.5 16.81 31.5 17.36 31.11 18.37 31.11 18.37 31.37 17.43 31.5 17.43 32.09 17.05 32.45 17.89 32.73 18.28 33.34 19.22 34.22 19.7 34.23 19.7 34.56 20.72 34.96 21.03 34.64 20.7 34.46 20.7 33.56 21.34 33.37 21.34 34.16 21.82 34.16 21.75 33.52 22.36 33.16 23.13 33.57 23.17 33.28 22.53 32.93 22.53 32.61 22.89 32.39 22.82 31.79 22.39 31.79 22.05 31.24 23.08 30.8 24.13 30.8 24.13 29.86 23.04 29.71 23.04 29.17 23.87 29.17 23 28.75 23 28.11 22.71 27.82 22.77 27.5 21.67 26.94 20.38 27.88 19.32 27.88 17.94 28.45 17.94 28.59"/><polyline class="cls-1" points="41.15 53.04 41.61 53.34 41.25 54 40.8 54 39.52 54.72 39.97 55.81 39.68 55.99 38.66 55.99 38.03 56.59 37.4 56.59 36.67 56.83 34.93 55.51 34.61 54.25 35.06 53.79 36.82 52.2 36.82 50.53 37.17 50.38 37.62 50.21 38.3 50.16 39.14 51.13 39.88 50.68 40.9 50.71 41.15 51.97 41.15 53.04"/><polygon class="cls-1" points="33.12 58.2 33.53 58.53 33.12 59.13 33.94 59.26 34.25 60.34 34.82 60.13 35.43 60.13 35.91 60.39 36.62 60.15 36.49 59.88 36.73 59.55 37.7 59.41 38.62 58.26 38.35 57.75 39.41 57.75 40.29 57.36 39.68 55.99 38.66 55.99 38.03 56.59 37.4 56.59 36.67 56.83 34.93 55.51 33.99 55.51 33.99 56.1 34.31 56.31 33.78 57.4 33.28 57.4 33.11 58.05 33.12 58.2"/><polygon class="cls-1" points="46.2 60.93 45.24 60.65 44.34 60.79 43.4 58.49 41.33 57.06 40.29 57.36 39.41 57.75 38.35 57.75 38.62 58.26 37.7 59.41 38.58 60.88 38.58 61.66 40.5 62.81 40.5 63.3 40.63 63.3 40.92 63.58 41.7 63.58 41.98 63.12 42.3 63.44 43.87 63.44 44.44 62.92 44.44 62.49 44.21 62.28 44.21 61.44 44.82 61.76 45.61 61.46 46.2 60.93"/><polyline class="cls-1" points="17.23 24.24 16.73 24.42 16.55 24.01 16.03 24.01 15.77 24.58 15.06 24.88 15.06 24.29 14.36 24.29 13.09 23.55 12.01 23.88 10.79 23.32 10.32 23.27 10.24 21.01 10.65 20.6 9.99 20.17 9.99 19.05 10.27 19.21 10.62 19.39 10.62 18.33 11.16 18.14 11.4 18.33 13.28 18.05 13.46 18.48 15.23 20.97 16.94 20.06 17.55 20.54 18.11 20.54 18.93 20.95 19.42 21.37 18.98 22.1 18.98 23.32 17.93 23.29 17.23 24.24"/><polyline class="cls-1" points="10.17 26.78 10.64 27.24 11.32 27.38 12.13 28.3 12.22 28.55 13.31 28.55 14.62 28.55 14.6 28.84 13.63 28.84 13.84 29.23 15.55 29.23 15.9 29.23 15.75 29.5 15.76 29.96 15.97 29.75 16.74 29.44 17.48 29.44 17.94 29.19 17.94 26.49 18.23 26.11 17.78 25.54 17.23 25.52 17.23 24.24 16.74 24.42 16.55 24.01 16.03 24.01 15.77 24.58 15.06 24.88 15.06 24.29 14.36 24.29 13.09 23.55 12.01 23.88 10.79 23.33 10.32 23.27 9.28 23.77 9.71 24.88 10.35 25.08 11.14 25.35 11.14 25.98 10.54 26.3 10.28 26.3 10.17 26.78"/><polyline class="cls-1" points="10.17 26.78 10.28 26.3 10.54 26.3 11.14 25.98 11.14 25.35 10.35 25.08 9.71 24.88 9.28 23.77 10.32 23.27 10.24 21.01 10.65 20.6 9.98 20.17 9.98 19.05 9.97 19.05 9.19 19.05 9.05 19.69 8.23 18.86 6.02 19.22 5.17 19.37 5.17 19.69 3.96 19.84 3.66 21.67 4.69 21.67 6.25 21.21 5.8 21.8 6.67 22.01 6.67 22.47 6.21 22.27 4.89 22.1 4.89 22.95 5.43 22.77 6.32 22.77 6.32 23.83 5.76 23.59 4.2 23.83 3.79 24.03 5.37 24.79 5.71 26.07 6.58 26.07 7.07 25.75 7.94 25.75 8.4 26.46 9.3 26.46 9.62 26.78 10.17 26.78"/><polygon class="cls-1" points="37.21 39.44 37.21 40.08 36.89 40.4 37.83 41.69 37.83 43.01 38.35 43.67 39.26 43.67 39.88 44.05 39.88 44.73 40.36 44.73 40.73 44.36 42.29 45.05 42.51 44.62 42.8 44.91 43.14 44.56 42.59 43.99 43.87 42.64 43.87 41.99 43.67 41.3 42.87 39.9 42.37 39.9 41.98 38.89 39.56 38.89 39.26 38.62 38.98 39.17 37.76 38.88 37.21 39.29 37.21 39.44"/><polyline class="cls-1" points="36.21 46.83 35.57 46.65 35.48 46.18 34.87 45.57 33.59 45.57 32.67 44.65 33.1 43.87 33.51 43.87 34.44 42.72 34.44 42.33 33.69 42.01 33.72 41.24 33.72 40.45 35.85 39.29 37.21 39.29 37.21 39.43 37.21 40.08 36.89 40.4 37.83 41.69 37.83 43.01 38.36 43.67 39.26 43.67 39.88 44.04 39.88 44.72"/><polyline class="cls-1" points="39.88 44.72 38.03 45.95 37.46 45.98 36.21 46.83"/><polygon class="cls-1" points="36.17 46.94 36.42 47.52 36.05 48.1 36.05 49.18 36.89 49.27 37.17 50.38 37.62 50.21 38.3 50.16 39.14 51.13 39.88 50.68 40.9 50.71 41.7 49.18 41.7 48.53 42.59 47.65 43.17 47.32 43.24 46.07 43.02 45.76 43.68 45.11 43.14 44.56 42.8 44.91 42.51 44.62 42.29 45.05 40.73 44.36 40.36 44.73 39.88 44.73 38.03 45.96 37.44 45.94 36.21 46.84 36.17 46.94"/><polygon class="cls-1" points="46.71 53.88 46.69 54.7 47.09 55.04 47.09 56.27 47.78 57.08 48.16 57.08 48.16 58.02 48.89 58.38 47.62 60.13 46.69 60.13 46.69 61.08 45.24 60.65 44.34 60.79 43.4 58.49 41.33 57.06 40.29 57.36 39.68 55.99 39.97 55.81 39.52 54.72 40.8 54 41.25 54 41.61 53.34 43.1 53.34 43.9 52.32 43.94 51.72 44.62 51.12 45.01 51.52 45.35 51.52 46.14 53.34 46.71 53.88"/><polygon class="cls-1" points="48.3 50.89 48.89 51.89 49.43 51.89 49.68 51.52 50.02 51.52 50.54 51.89 51.33 52.54 51.33 53.66 51.78 53.91 52.06 54.77 51.52 55.4 51.94 56.34 51.92 57.05 51.52 57.51 51.01 57.51 49.97 57.22 49.97 57.58 48.77 57.58 48.16 57.08 47.78 57.08 47.09 56.27 47.09 55.04 46.69 54.7 46.71 53.88 46.14 53.34 46.88 51.39 47.28 51.52 47.52 51.04 48.3 50.75 48.3 50.89"/><polygon class="cls-1" points="52.15 54.86 52.37 55.08 52.45 55.72 53.17 55.72 53.62 56.31 54.17 55.7 54.53 56.1 54.91 55.72 55.66 55.72 56.32 56.7 56.32 57.58 57.09 58.38 56.02 59.45 55.93 60.87 55.14 60.87 54.73 61.47 55.05 61.79 53.73 62.87 53.06 62.87 52.76 61.99 53.39 61.36 53.05 60.67 51.77 59.49 51.36 59.49 50.88 58.86 49.95 59.79 48.25 59.27 48.89 58.38 48.16 58.02 48.16 57.08 48.77 57.58 49.97 57.58 49.97 57.22 51.01 57.51 51.52 57.51 51.92 57.05 51.94 56.34 51.52 55.4 52.06 54.77 52.15 54.86"/><polygon class="cls-1" points="56.17 47.35 55.27 48.28 54.8 48.34 54.05 49.68 53.4 50.55 53.06 51.39 52.62 51.39 51.33 52.54 51.33 53.66 51.78 53.91 52.06 54.77 52.37 55.08 52.45 55.72 53.17 55.72 53.62 56.31 54.17 55.7 54.53 56.1 54.91 55.72 55.66 55.72 56.45 53.27 56.45 52.16 57.09 50.8 56.77 50.41 56.55 47.74 56.17 47.35"/><polygon class="cls-1" points="56.66 47.74 57.09 47.74 57.61 47.44 58.81 48.34 58.81 49.55 60.58 49.55 60.58 51.83 62.56 52.52 62.38 53.02 61.55 53.02 61.55 54 61.37 54.41 60.6 54.41 60.6 55.25 61.59 55.52 62.04 55.98 61.96 56.58 61.05 57.51 59.02 56.31 59.02 55.84 56.96 56.49 56.96 55.77 55.66 55.72 56.45 53.27 56.45 52.16 57.09 50.8 56.77 50.41 56.55 47.74 56.66 47.74"/><polygon class="cls-1" points="57.47 55.12 57.98 55.12 58.29 55.49 57.88 56.03 57.47 56.03 57.21 55.57 57.47 55.12"/><polygon class="cls-1" points="61.15 57.58 61.15 58.59 61.49 58.97 61.49 59.6 62.56 60.27 61.94 60.9 61.15 60.9 59.92 60.42 59.11 60.42 56.52 58.94 57.09 58.38 56.32 57.58 56.32 56.7 55.66 55.72 56.96 55.77 56.96 56.49 59.02 55.84 59.02 56.31 61.05 57.51 61.15 57.58"/><path class="cls-1" d="M54.05,40.58l.16.54-.91.71L54,43.41v1.5s.84.75.89.75h.79v.69h.51v1l-.9.94-.47.05-1.5-1.11-1.24.3-.88-.05.6-.79V46l-1.6-1.86.27-.94L50,42.72l.79-.35V40.61l-.31-.17.73-.47v.61l.65.28h1.66l.46-.39Z"/><polyline class="cls-1" points="48.31 50.75 47.38 48.19 46.74 47.78 48.09 47.03 49.07 47.03 49.65 47.59 51.19 47.48 52.06 47.53 53.3 47.23 54.8 48.34 54.05 49.68 53.41 50.55 53.07 51.39 52.63 51.39 51.33 52.54 50.54 51.89 50.02 51.52 49.68 51.52 49.43 51.89 48.9 51.89 48.31 50.89 48.31 50.75"/><polygon class="cls-1" points="56.17 46.61 56.86 46.01 56.57 45.59 57.52 45.42 58.18 44.36 58.18 43.76 57.09 43.71 55.98 42.58 56.19 42.42 56.18 40.66 55.38 39.8 53.95 39.8 53.95 40.47 54.05 40.58 54.21 41.12 53.3 41.83 53.98 43.41 53.98 44.91 54.87 45.66 55.66 45.66 55.66 46.35 56.17 46.35 56.17 46.61"/><polygon class="cls-1" points="63.44 38.52 63.98 38.91 63.76 39.87 62.95 40.3 62.95 40.79 62.21 41.05 62.21 44.06 61.16 45.01 59.38 43.23 58.81 43.96 58.63 43.77 58.18 43.76 57.09 43.71 55.98 42.58 56.19 42.42 56.18 40.66 56.97 37.94 57.39 37.94 57.75 38.16 58.35 37.92 58.8 38.36 59.24 38.44 59.24 38.79 60.19 39.8 60.92 39.31 61.51 39.8 62.28 39.8 63.29 38.56 63.36 38.48 63.44 38.52"/><polygon class="cls-1" points="62.95 40.79 63.88 40.59 64.77 39.9 64.48 39.7 64.48 39.21 64.84 38.75 65.44 38.75 65.87 38.37 67.42 38.37 67.42 38.92 68.03 39.45 67.57 39.91 67.63 40.6 68.03 40.6 68.03 41.19 68.44 41.19 69.04 41.78 69.04 42.49 68.51 42.84 67.78 42.84 67.78 43.5 67.3 44 66.38 43.2 66.38 42.59 66 42.59 65.05 44.15 64.34 44.21 63.99 43.87 63.16 43.87 62.21 42.41 62.21 41.05 62.95 40.79"/><polygon class="cls-1" points="67.78 43.5 67.96 44.01 69.04 44.48 69.04 45.66 70.19 46.29 69.61 46.87 69.71 47.91 69.15 47.91 68.43 48.6 67.49 48.6 67.17 48.94 66.4 48.99 66.16 49.4 65.72 49.4 65.43 48.88 64.97 48.88 64.35 48.49 64.35 47.51 64.6 47.51 64.62 46.94 63.33 46.01 62.98 46.37 62.93 46.89 62.66 46.89 61.95 46.18 61.16 45.01 62.21 44.06 62.21 42.41 63.16 43.87 63.99 43.87 64.34 44.21 65.05 44.15 66 42.59 66.38 42.59 66.38 43.2 67.3 44 67.78 43.5"/><polygon class="cls-1" points="64.97 48.88 64.74 49.79 65.41 49.98 65.41 51.03 64.36 51.13 62.56 52.52 60.58 51.83 60.58 49.55 58.81 49.55 58.81 48.34 57.61 47.44 57.09 47.74 56.55 47.74 56.17 47.35 56.17 46.61 56.86 46.01 56.57 45.59 57.52 45.42 58.18 44.36 58.18 43.76 58.63 43.77 58.81 43.96 59.38 43.23 61.16 45.01 61.95 46.18 62.66 46.89 62.93 46.89 62.98 46.37 63.33 46.01 64.62 46.94 64.6 47.51 64.35 47.51 64.35 48.49 64.97 48.88"/><polygon class="cls-1" points="67.22 49.02 67.49 49.65 67.88 49.65 67.88 50.57 68.51 50.97 69.42 50.97 69.42 51.72 69.69 52.28 68.43 52.96 67.52 53.94 67.52 54.34 66.55 54.34 65.82 53.84 65.13 54.29 65.14 54.75 64.33 54.2 63.28 55.31 63.28 56 62.85 56 63.27 56.56 61.96 56.58 62.04 55.98 61.59 55.52 60.6 55.25 60.6 54.41 61.37 54.41 61.55 54 61.55 53.02 62.38 53.02 62.56 52.52 64.36 51.13 65.41 51.03 65.41 49.98 64.74 49.79 64.97 48.88 65.43 48.88 65.72 49.4 66.16 49.4 66.4 48.99 67.17 48.94 67.22 49.02"/><polygon class="cls-1" points="65.13 54.75 65.13 54.29 65.82 53.84 66.55 54.34 67.52 54.34 67.52 53.94 68.43 52.96 69.24 52.52 69.2 52.78 69.2 53.28 68.75 53.84 68.98 54.84 68.01 56.02 68.01 56.96 68.27 57.25 68.27 57.58 69.45 58.56 68.58 58.69 68.31 58.97 67.87 58.97 67.87 59.6 66.62 59.6 66.07 60.15 65.51 59.68 64.19 60.78 63.66 60.11 62.56 60.27 61.49 59.6 61.49 58.97 61.15 58.59 61.15 57.58 61.05 57.51 61.96 56.58 63.27 56.56 62.85 56 63.28 56 63.28 55.31 64.33 54.21 65.13 54.75"/><polygon class="cls-1" points="69.11 54.98 69.69 55.5 69.69 55.81 70.93 56.25 71.82 56.65 72.48 56.65 73.41 56.23 73.95 56.65 73.95 57.1 73.08 58.41 72.7 58.89 72.91 58.89 72.94 59.41 71.1 60.78 70.74 60.78 70.72 61.36 69.95 61.36 69.39 61.9 69.41 61.08 69.04 61.09 68.51 60.55 68.51 60.05 67.87 59.6 67.87 58.97 68.31 58.97 68.58 58.69 69.45 58.56 68.27 57.58 68.27 57.25 68.01 56.96 68.01 56.02 68.98 54.84 69.11 54.98"/><path class="cls-1" d="M62.34,64.9l.73.95s.72-.4.76-.4.44.21.48.21L66,65.27l.9-.32.5-.27.48.07.39-.75-.48-.23.3-.52h.36l.11-.57h.57l.27-.78,0-.83-.37,0-.53-.54v-.5l-.64-.45H66.62l-.55.55-.56-.47-1.32,1.1-.53-.67-1.1.16.19.51-.41.5-.09.61h.21l0,.7.33.4h-.57l.09.69.4.4-.35.35-.14.35Z"/><polygon class="cls-1" points="62.15 64.85 61.72 65.02 61.49 64.79 60.45 64.79 60.45 64.13 59.98 63.57 59.68 63.87 58.34 63.77 57.81 63.24 57.25 63.09 57.25 63.47 57.55 63.47 57.36 63.85 55.89 63.74 55.59 63.41 55.59 62.87 53.73 62.87 55.05 61.79 54.73 61.47 55.14 60.87 55.93 60.87 56.02 59.45 56.52 58.94 59.11 60.42 59.92 60.42 61.15 60.9 61.94 60.9 62.56 60.27 62.75 60.78 62.34 61.28 62.25 61.89 62.46 61.9 62.49 62.6 62.82 63 62.25 63.02 62.34 63.7 62.74 64.1 62.39 64.45 62.26 64.77 62.15 64.85"/><polygon class="cls-1" points="46.2 60.93 45.61 61.46 44.82 61.76 44.21 61.44 44.21 62.28 44.44 62.49 44.44 62.92 43.53 63.74 44.07 64.28 44.5 64.28 44.9 64.75 45.66 64 46.32 64 46.32 64.46 47.78 65.02 48.52 64.27 49.48 64.27 50.23 63.52 50.64 63.52 51.96 62.23 52.84 62.23 52.76 61.99 53.39 61.36 53.05 60.67 51.77 59.49 51.36 59.49 50.88 58.86 49.95 59.79 48.25 59.27 47.62 60.13 46.69 60.13 46.69 61.08 46.2 60.93"/><polygon class="cls-1" points="47.72 65.11 46.61 66.75 46.61 68.03 45.4 67.5 44.85 68.05 42.36 68.05 42.36 69.07 41.46 69.53 40.74 68.83 40.61 68.96 40.02 68.96 39.54 68.05 40.23 67.86 40.23 66.43 39.8 65.63 39.02 65.63 38.65 65.26 38.49 64.51 39.49 63.3 40.63 63.3 40.92 63.58 41.7 63.58 41.98 63.12 42.3 63.44 43.87 63.44 43.53 63.74 44.07 64.28 44.5 64.28 44.9 64.75 45.66 64 46.32 64 46.32 64.46 47.78 65.02 47.72 65.11"/><polygon class="cls-1" points="46.61 68.03 46.61 70.42 47.02 70.84 47.37 71.35 46.74 71.42 46.1 70.97 45.15 71.58 44.34 71.58 44.34 72.06 43.35 72.06 41.96 71.36 41.16 71.56 40.78 71.94 40.33 72.06 39.75 71.22 39.32 70.92 38.67 70.92 38.67 70.36 39.57 70.22 40.28 69.53 41.46 69.53 42.36 69.07 42.36 68.05 44.85 68.05 45.4 67.5 46.61 68.03"/><polygon class="cls-1" points="38.97 70.25 38.59 69.83 38.11 69.83 37.79 69.55 37.2 69.55 37.2 70.07 36.25 69.13 35.15 69.13 35.15 68.67 34.74 68.39 33.74 68.39 33.38 68.08 33.38 67.19 34.37 66.74 34.37 65.9 35.1 65.5 35.68 65.99 35.93 65.99 36.27 65.55 35.74 65.55 35.74 65.23 36.17 65.23 36.63 64.89 36.25 64.51 36.25 64.17 36.71 64.17 36.99 64.58 36.99 64.97 37.24 65.02 37.49 64.51 37.67 64.69 38.53 64.67 38.65 65.26 39.02 65.63 39.8 65.63 40.23 66.43 40.23 67.86 39.54 68.05 40.02 68.96 40.61 68.96 40.74 68.83 41.46 69.53 40.28 69.53 39.57 70.22 39.03 70.31 38.97 70.25"/><polygon class="cls-1" points="40.5 63.2 40.5 62.81 38.58 61.66 38.58 60.88 37.7 59.41 36.73 59.55 36.49 59.88 36.62 60.15 35.91 60.39 35.43 60.13 34.82 60.13 34.25 60.34 34.89 61.46 35.55 62.11 34.83 62.31 34.48 63.67 33.95 63.14 33.05 63.34 31.76 64.62 31.76 64.92 31.48 64.92 31.48 65.26 31.14 65.61 31.71 65.96 31.71 66.5 32.08 66.5 32.08 66.86 32.38 66.86 31.75 67.65 31.2 67.65 31.2 68.87 31.36 69.08 32.35 69.06 32.35 68.74 32.29 68.51 32.29 67.8 32.84 67.8 33.38 68.08 33.38 67.19 34.37 66.74 34.37 65.9 35.1 65.5 35.68 65.99 35.93 65.99 36.27 65.55 35.74 65.55 35.74 65.23 36.17 65.23 36.63 64.89 36.25 64.51 36.25 64.17 36.71 64.17 36.99 64.58 36.99 64.97 37.24 65.02 37.49 64.51 37.67 64.69 38.53 64.67 38.49 64.51 39.49 63.3 40.5 63.3 40.5 63.2"/><polygon class="cls-1" points="32.04 64.09 31.32 63.87 30.89 63.87 30.25 63.46 29.55 63.46 29.55 62.84 29.23 62.47 28.47 61.58 28.13 61.58 27.9 61.79 27.9 62.13 28.36 62.67 28.09 62.97 28.58 62.97 28.52 64.17 27.9 65.07 26.72 66.33 26.72 67.08 26.49 67.33 26.49 67.8 28.1 69.08 29.48 68.79 30.05 69.18 30.48 68.87 30.83 69.13 31.36 69.08 31.2 68.87 31.2 67.65 31.75 67.65 32.38 66.86 32.08 66.86 32.08 66.5 31.71 66.5 31.71 65.96 31.14 65.61 31.48 65.26 31.48 64.92 31.76 64.92 31.76 64.62 32.29 64.09 32.04 64.09"/><polygon class="cls-1" points="26.38 67.86 26.05 68.12 25.15 68.12 24.94 68.27 24.05 67.38 24.05 66.77 22.7 66.77 20.77 65.81 20.77 65.27 20.39 65.27 20.33 66.03 19.61 65.61 20.27 64.25 19.3 63.75 18.93 64.12 18.52 63.72 18.12 63.72 17.77 63.18 18.93 62.63 19.39 61.93 19.97 61.93 20.3 62.17 20.85 62.17 21.36 61.96 22.08 62.15 22.71 61.98 23.93 61.75 24.93 62.01 25.84 61.58 25.84 61.96 26.58 61.95 26.93 61.75 27.9 61.75 27.9 62.13 28.36 62.67 28.09 62.97 28.58 62.97 28.52 64.17 27.9 65.07 26.72 66.33 26.72 67.08 26.49 67.33 26.49 67.8 26.38 67.86"/><polygon class="cls-1" points="19.51 61.73 19.53 61.69 20 60.83 21.43 54.3 22.46 53.93 23.02 54.05 22.95 54.61 23.95 54.83 24.86 54.57 25.11 55.03 26.17 55.7 26.41 56.1 26.41 56.59 27.31 56.59 27.64 56.18 27.92 56.46 27.92 57.05 29.45 57.64 29.03 58.26 29.02 59.18 28.73 59.23 28.53 59.02 28.69 58.86 28.37 58.55 28 58.92 27.37 58.99 27.37 60.47 27.05 61.23 27.05 61.73 26.93 61.75 26.58 61.95 25.84 61.96 25.84 61.58 24.93 62.01 23.93 61.75 22.71 61.98 22.08 62.15 21.36 61.96 20.85 62.17 20.3 62.17 19.97 61.93 19.39 61.93 19.51 61.73"/><polygon class="cls-1" points="34.5 53.35 35.13 53.72 34.61 54.25 34.93 55.51 33.99 55.51 33.99 56.1 34.31 56.31 33.78 57.4 33.28 57.4 33.11 58.05 32.72 58.44 32.23 58.05 31.43 58.05 30.88 58.5 29.84 58.5 29.59 58.67 29.03 58.57 29.03 58.26 29.45 57.64 27.92 57.05 27.92 56.46 28.48 56.1 28.27 55.59 28.7 55.59 28.7 53.93 29.28 53.93 29.75 53.45 29.82 53.09 29.44 52.7 30.42 52.2 30.82 52.59 30.84 53.11 31.46 53.11 32.45 52.74 32.84 53.05 33.65 53.05 33.67 53.7 34.5 53.35"/><polyline class="cls-1" points="29.03 58.58 29.02 59.18 28.73 59.23 28.52 59.02 28.69 58.86 28.37 58.55 28 58.92 27.37 58.99 27.37 60.47 27.04 61.23 27.04 61.73 27.04 61.75 27.9 61.75 27.95 61.75 28.12 61.58 28.47 61.58 29.23 62.47 29.55 62.84 29.55 63.46 30.24 63.46 30.89 63.87 31.32 63.87 32.04 64.09 32.29 64.09 33.04 63.34 33.95 63.14 34.48 63.67 34.83 62.31 35.55 62.11 34.89 61.46 34.25 60.34"/><polyline class="cls-1" points="29.02 58.57 29.59 58.67 29.83 58.5 30.88 58.5 31.43 58.05 32.23 58.05 32.72 58.44 33.11 58.05 33.12 58.2 33.53 58.53 33.12 59.13 33.94 59.26 34.25 60.34"/><polygon class="cls-1" points="22.82 45.45 22.46 45.9 21.52 52.51 22.09 51.94 22.7 52.34 22.82 52.9 22.34 53 21.85 52.89 21.52 53.7 21.43 54.3 22.46 53.93 23.02 54.05 22.95 54.61 23.95 54.83 24.86 54.57 25.11 55.03 26.17 55.7 26.41 56.1 26.41 56.59 27.31 56.59 27.64 56.18 27.92 56.46 28.48 56.1 28.27 55.59 28.7 55.59 28.7 53.93 29.22 53.93 29.75 53.45 29.82 53.09 29.44 52.7 30.42 52.2 30.42 51.37 30.05 51.7 29.27 51.7 28.76 51.44 29.01 51.19 29.01 50.13 29.36 49.77 29.18 49.26 28.36 49.26 28.04 49.53 26.56 48.72 26.56 47.98 25.78 47.81 25.61 47.47 24.88 47.47 24.98 48.28 24.75 48.32 24.13 47.03 23.03 45.99 22.82 45.45"/><polygon class="cls-1" points="22.93 39.29 23.98 39.02 23.98 39.45 24.99 39.42 24.99 39.45 24.99 40.03 25.73 40.82 27.55 41.5 28.19 41.83 28.56 42.49 28.56 43.1 28.21 43.87 26.79 43.87 26.46 44.26 26.46 45.13 27.31 45.61 27.57 46.84 27.32 47.21 27.41 47.74 28.69 48.15 28.94 48.4 28.6 49.26 28.36 49.26 28.04 49.53 26.56 48.72 26.56 47.98 25.78 47.81 25.61 47.47 24.88 47.47 24.74 46.77 24.21 45.96 23.27 45.13 22.04 44.36 22.04 43.6 22.6 43.6 22.52 43.01 22.81 43.01 23 42.63 23 41.51 22.56 40.77 22.15 40.7 22.15 40.41 22.91 39.8 22.89 39.4 22.93 39.29"/><polygon class="cls-1" points="21.03 41.46 21.26 42.29 21.89 42.81 22.1 43.3 22.29 42.75 22.19 42.49 22.13 41.99 21.59 41.99 21.22 41.38 21.03 41.46"/><polygon class="cls-1" points="20.41 39.72 20.77 39.72 20.77 40.04 21.66 40.21 21.95 40.44 21.95 40.86 21.66 40.86 20.9 40.35 20.6 40.35 20.41 40.11 20.41 39.72"/><polygon class="cls-1" points="29.56 41.44 28.94 41.64 28.94 42.12 28.56 42.49 28.56 43.1 28.21 43.87 26.79 43.87 26.46 44.26 26.46 45.13 27.31 45.61 27.57 46.84 27.32 47.21 27.41 47.74 28.69 48.15 28.94 48.4 28.8 48.75 29.82 48.75 30.54 48.04 30.54 46.96 31.21 46.29 31.53 46.29 31.96 45.86 31.96 45.19 32.36 45.19 32.66 44.66 33.09 43.87 33.51 43.87 34.44 42.72 34.44 42.33 33.68 42.01 33.72 41.24 32.9 41.24 32.31 41.6 31.86 41.28 31.55 41.78 30.3 41.4 29.56 41.44"/><polyline class="cls-1" points="37.18 50.37 36.83 50.53 36.83 52.19 35.13 53.72 34.5 53.34 33.67 53.69 33.66 53.05 32.84 53.05 32.45 52.74 31.46 53.11 30.84 53.11 30.82 52.59 30.42 52.19 30.42 51.36 30.05 51.7 29.27 51.7 28.76 51.44 29.01 51.19 29.01 50.13 29.37 49.77 29.18 49.26 28.6 49.26 28.6 49.26 28.6 49.26 28.8 48.75 29.83 48.75 30.54 48.04 30.54 46.96 31.21 46.28 31.54 46.28 31.96 45.86 31.96 45.19 32.37 45.19 32.67 44.65 33.58 45.57 34.87 45.57 35.48 46.18 35.57 46.65 36.21 46.83 36.17 46.94 36.42 47.51 36.05 48.1 36.05 49.17 36.89 49.26 37.18 50.37"/><polygon class="cls-1" points="28.56 42.49 28.19 41.83 27.55 41.5 27.18 41.36 25.73 40.82 24.99 40.03 24.99 39.42 25.71 39.42 26.23 38.75 25.81 38.75 25.81 37.77 25.36 35.31 25 35.26 24.43 33.98 26.22 33.98 26.22 33.47 27.07 33.47 27.24 33.16 28.27 33.16 28.52 33.16 28.69 33.51 29.34 35.15 29.34 37.04 29.53 37.47 29.05 38.06 29.05 38.95 29.54 39.56 30.25 39.59 29.78 40.62 30.3 41.4 29.56 41.44 28.94 41.64 28.94 42.12 28.56 42.49"/><polygon class="cls-1" points="70.97 24.34 71.24 25.29 70.82 27.75 71.35 28.4 70.69 29.52 70.21 29.81 69.24 29.81 68.85 29.43 68.85 29.08 68.49 28.65 67.98 28.65 68.19 28.15 68.19 27.46 67.07 26.97 67.51 26.56 67.59 25.63 68.71 22.89 68.76 22.81 70.01 23.29 70.94 24.24 70.97 24.34"/><polygon class="cls-1" points="61.87 13.89 62.36 13.89 62.85 13.4 63.42 13.4 63.73 13.6 64.35 13.6 65.11 14.39 65.11 14.81 65.85 15.94 66.43 15.94 66.43 15.49 67.05 15.51 67.56 16.07 69.01 16.07 69.39 15.53 69.9 15.53 70.21 16.45 70.82 16.45 70.35 17.61 69.16 17.61 67.78 16.83 67.07 17.96 67.78 18.35 67.78 18.96 68.34 18.51 69.14 18.87 69.14 19.4 68.78 19.77 69.08 20.06 69.08 20.59 68.19 21.17 67.27 20.26 64.63 19.14 64.15 19.14 63.77 18.76 63.77 17.93 62.76 17.93 62.02 17.18 61.94 15.21 61.52 14.8 61.52 13.61 61.87 13.89"/><polygon class="cls-1" points="70.82 16.68 72.58 16.68 73.27 16.99 73.85 16.99 73.28 18.56 71.92 20.14 71.93 21.15 71.55 21.95 71.77 22.37 70.94 24.24 70.01 23.29 68.76 22.81 68.19 22.62 68.19 21.17 69.08 20.59 69.08 20.06 68.78 19.77 69.14 19.4 69.14 18.87 68.34 18.51 67.78 18.96 67.78 18.35 67.07 17.96 67.78 16.83 69.16 17.61 70.35 17.61 70.73 16.68 70.82 16.68"/><polyline class="cls-1" points="46.73 47.78 47.37 48.19 48.3 50.75 47.52 51.04 47.28 51.52 46.88 51.39 46.14 53.34 45.35 51.52 45.01 51.52 44.62 51.12 43.94 51.72 43.9 52.32 43.1 53.34 41.61 53.34 41.15 53.04 41.15 51.97 40.9 50.71 41.7 49.18 41.7 48.53 42.59 47.65 43.17 47.32 43.21 46.59 43.35 46.69 44.55 47.43 45.6 47.43 46.12 48.12 46.73 47.78"/><polygon class="cls-1" points="43.35 46.69 44.55 47.43 45.6 47.43 46.12 48.12 48.09 47.03 49.07 47.03 49.65 47.59 51.18 47.48 51.78 46.69 51.78 45.97 50.18 44.11 50.45 43.17 49.96 42.72 49.47 42.23 48.79 42.23 48.42 41.86 47.19 41.86 45.85 41.27 45.85 40.3 45.2 40.3 44.18 41.3 43.67 41.3 43.87 41.99 43.87 42.64 42.59 43.99 43.68 45.11 43.02 45.76 43.24 46.07 43.21 46.59 43.35 46.69"/><path class="cls-2" d="M42.63,23.44h-.05l.79.83-.37.81h1.19l.28-.28.37.37.72-.41.14-.34H46v-1.3h2.18V21.84l.63-.68-.38-.36-.1-1.68-1.86-2-2.08.29-.62-.24h0l-1.25-.61H41.13l-.22-.24-.91.32h-.73L38.89,16l-.39,1.5h-.92l.43,1,.24,1.14v.84l1.32,2.08.6,0m0,0,.25,1.27,1.18-.4,1,0h.05"/><path class="cls-2" d="M31.53,14.28l-.77.16-1,1h-1.2L28,14.86H25.89l-.79-.46h-.86l-.25.24-.89-1.52.43-.95-.45-.34h-.49l-1,.4-1.32-.76h-.36v.44l.37.37v.5L20,13l.42,1.41.94,1.3v3.83l.95.67v.39h-.95l.23.95.6.38.83-.64,1,.43,1,0,.6.48.73-.37v.38L27,21.8H28.4l.09-.43h.41v.88l.54.71h.79l1-1,.63.54v.76l1,.76h.3l.53.54h.55v-.29l-.37-.84.27-.28.47-.08.51-.52v-1l-.89-.91m1.76-.84"/><path class="cls-2" d="M34.17,20.61,39,14.73h0v-.06h0Z"/><polygon class="cls-2" points="72.41 68.77 71.85 65.55 71.05 65.55 71.05 68.17 70.42 68 69.72 68 67.02 70.38 67.02 71.4 67.02 72.87 67.72 73.26 67.54 74.52 68.31 74.7 67.93 76.27 69.16 76.48 68.67 77.26 70.66 78.83 71.64 79.03 71.66 78.87 72.23 74.48 72.27 74.2 73.01 72.77 72.41 68.77"/><polygon class="cls-2" points="59.17 38.42 59.17 38.77 60.12 39.79 60.85 39.29 61.43 39.79 62.2 39.79 63.27 38.47 63.72 37.52 63.46 37.23 65.25 35.54 65.25 34.01 65.72 33.7 66.16 33.7 67.81 31.58 67.81 31.2 68.07 31.2 68.41 30.54 67.4 30.54 67.68 30.11 68.03 29.8 68.03 29.42 68.75 29.42 68.75 29.07 68.39 28.64 67.88 28.64 68.09 28.14 68.09 27.45 66.98 26.96 66.93 27.01 66.98 26.96 65.54 25.99 64.96 26.36 64.44 25.89 63.2 25.91 62.98 25.47 61.63 26.21 60.69 27.18 60.69 28.29 59.27 28.3 58.73 28.86 58.45 29.16 57.9 28.6 57.27 28.66 56.43 27.82 56.86 27.34 55.31 25.71 54.44 25.71 54.44 26.17 53.05 26.69 52.39 26.4 50.91 26.4 50.31 25.65 50.31 25.08 49.33 24.54 49.33 23.97 48.18 23.11 46 23.11 46 24.41 45.71 24.42 45.58 24.76 46.65 25.86 46.65 26.51 45.92 27.09 46.14 27.3 46.14 27.76 45.17 28.3 45.7 29.05 45.7 29.61 45.26 30.05 45.62 30.63 45.35 31.57 45.94 31.99 45.94 33.53 46.45 33.97 46.45 35.85 47.2 36.86 47.56 36.5 48.25 36.5 48.73 36.86 49.6 36.35 50.3 37.92 51.13 37.92 51.73 38.57 51.73 39.55 51.12 39.95 51.13 40.57 51.78 40.84 53.43 40.84 53.89 40.45 53.89 39.79 55.32 39.79 56.12 40.64 56.91 37.92 57.33 37.92 57.68 38.14 58.28 37.9 58.73 38.34 59.17 38.42"/><path class="cls-2" d="M10.06,19.05h-.8l-.13.63-.82-.82-2.2.36-.85.15v.31l-1.21.16-.29,1.83h1l1.55-.47-.44.6.87.2v.46l-.46-.2L5,22.09V23l.54-.19h.89v1.06l-.56-.24-1.55.24-.41.2,1.57.77.34,1.28h.87l.48-.32H8l.46.7h.9l.31.32h.56m7.91-6.24h-.55L17,20.05l-1.7.91-1.76-2.49-.19-.42-1.87.28-.24-.19-.54.19v1.05l-.35-.17-.28-.16"/><path class="cls-2" d="M37.17,50.35l.44-.16.68,0,.84,1,.73-.45,1,0,.8-1.54v-.64l.89-.89.58-.32.07-1.25L43,45.74l.65-.65-.53-.55L42.57,44l1.27-1.34V42l-.2-.69-.79-1.4h-.5l-.39-1H39.55l-.3-.27-.28.55-1.21-.29-.55.41H35.85M36,49.15"/><path class="cls-2" d="M69.59,52.25l-.27-.56V51h-.91l-.63-.41v-.92h-.39L67.12,49l-.05-.08-.77,0-.23.4h-.45l-.28-.52h-.46l-.23.92.66.19v1l-1,.1-1.79,1.39-.18.5h-.84v1l-.17.42h-.77v.83l1,.27L62,56l-.08.6-.91.93-2-1.2v-.47l-2.05.65v-.72l-1.3-.05.66,1v.88l.76.8-.56.56-.51.51-.09,1.41h-.78l-.41.61.32.32-1.32,1.07h1.86v.54l.3.34,1.47.1.18-.37h-.3v-.38l.56.15.53.53,1.34.1.3-.3.46.56v.66h1l.23.22.42-.17.12-.07v0l.09.11.73.95s.71-.41.75-.41.44.21.48.21l1.68-.39.9-.31.49-.27.48.06.39-.74-.48-.23.3-.52h.36l.1-.58H69l.27-.77.56-.54h.76l0-.59H71l1.83-1.36,0-.52h-.21l.38-.48.87-1.3v-.46l-.55-.42-.92.42h-.66l-.89-.4-1.23-.44v-.3L69,55l-.13-.15-.22-1,.45-.56v-.49l0-.27Z"/><path class="cls-2" d="M28,61.72v.34l.45.54-.27.3h.49l-.06,1.2L28,65l-1.18,1.26V67l-.24.24v.47L28.15,69l1.37-.3.57.4.43-.31.35.26.53,0,1,0v-.32l-.06-.23v-.72h.54l.54.29.36.31h1l.41.28v.46h1.1l.94.94v-.52h.59l.32.28h.48l.38.41,0,.07-.35.05v.56h.65l.43.3.58.83.44-.11.38-.38.8-.21,1.39.7h1v-.47h.8l1-.62.64.45.62-.07-.34-.5-.42-.42V66.67L47.71,65l.06-.09.74-.75h1l.75-.75h.4l1.32-1.29h.88l.22.64h.66L55,61.73l-.32-.32.41-.61h.78L56,59.39l1.07-1.07-.76-.81v-.87l-.66-1h-.75L54.5,56l-.36-.4-.55.6-.44-.59h-.72L52.35,55l-.22-.22L52,54.71l-.28-.86-.45-.25V52.48l-.79-.65L50,51.46h-.34l-.25.37h-.54l-.59-1v-.14l-.78.29-.23.48-.41-.13-.73,2-.79-1.82H45l-.39-.4-.68.59,0,.61-.8,1H41.62l-.46-.3V51.9l-.25-1.25-1,0-.73.44-.84-1-.68,0-.44.17-.35.15v1.67l-1.76,1.59-.45.46L35,55.45H34V56l.32.2-.53,1.09h-.49l-.17.66v.15m-4.08.37,0,.6-.28,0-.2-.2.16-.16-.32-.32-.37.37-.63.08V60.4l-.32.77v.51H28"/><polyline class="cls-2" points="33.16 58.14 33.14 57.99 32.75 58.38 32.26 57.99 31.47 57.99 30.92 58.43 29.88 58.43 29.63 58.61 29.07 58.51"/><polyline class="cls-2" points="58.43 12.55 57.24 11.66 55.76 11.22 55.42 10 55.57 8.68 55.15 8.68 54.6 9.77 53.54 10.27 52.05 10 52.45 11.68 51.61 12.64 51.39 14.65 51.37 14.92 49.39 15.22 49.59 16.68 49.41 17.94 48.33 19.13 48.42 20.8 48.81 21.17 48.81 21.17 48.18 21.85 48.18 23.11 49.33 23.97 49.33 24.54 50.31 25.09 50.31 25.65 50.9 26.4 52.39 26.4 53.05 26.69 54.44 26.17 54.44 25.71 55.31 25.71 56.86 27.34 56.43 27.82 57.27 28.66 57.9 28.61 58.45 29.16 59.27 28.3 60.68 28.29 60.68 27.18 61.63 26.21 62.97 25.47 63.19 25.91 64.44 25.89 64.96 26.36 65.54 25.99 66.97 26.96 68.09 27.46 68.09 28.15 67.88 28.64 68.38 28.64 68.74 29.07 68.74 29.42 69.14 29.8 70.1 29.8 70.58 29.51 71.24 28.39 70.71 27.74 71.13 25.29 70.86 24.34 70.83 24.24 71.66 22.36 71.44 21.95 71.82 21.14 71.81 20.14 73.17 18.56 73.74 16.99 73.16 16.99 72.46 16.68 70.71 16.68 70.62 16.68 70.71 16.45 70.1 16.45 69.79 15.53 69.29 15.53 68.9 16.07 67.46 16.07 66.95 15.52 66.33 15.49 66.33 15.94 65.75 15.94 65.02 14.81 65.02 14.39 64.26 13.6 63.64 13.6 63.33 13.4 62.77 13.4 62.28 13.89 61.78 13.89 61.44 13.61 60.47 13.02 58.9 13.5 58.9 13.03 58.43 12.55"/><polyline class="cls-2" points="51.3 52.51 51.3 53.63 51.74 53.88 52.02 54.74 52.34 55.05 52.42 55.69 53.13 55.69 53.58 56.28 54.13 55.67 54.49 56.07 54.86 55.69 55.61 55.69 56.91 55.74 56.91 56.46 58.97 55.81 58.97 56.28 60.99 57.48 61.89 56.55 61.97 55.95 61.53 55.49 60.54 55.22 60.54 54.39 61.3 54.39 61.48 53.98 61.48 52.99 62.32 52.99 62.5 52.49 64.29 51.1 65.33 51 65.33 49.96 64.67 49.77 64.9 48.85 65.36 48.85 65.64 49.37 66.08 49.37 66.32 48.97 67.09 48.92 67.41 48.58 68.34 48.58 69.06 47.89 69.62 47.89 69.52 46.84 70.1 46.27 68.95 45.64 68.95 44.46 67.88 43.99 67.7 43.48 67.7 42.82 68.43 42.82 68.95 42.47 68.95 41.77 68.36 41.17 67.94 41.17 67.94 40.58 67.55 40.58 67.49 39.89 67.94 39.44 67.34 38.9 67.34 38.36 65.8 38.36 65.37 38.73 64.77 38.73 64.41 39.19 64.41 39.68 64.7 39.88 63.81 40.57 62.89 40.78 62.89 40.28 63.69 39.85 63.9 38.89 63.37 38.5 63.29 38.47 63.22 38.55 62.21 39.79 61.44 39.79 60.86 39.29 60.14 39.79 59.18 38.77 59.18 38.42 58.74 38.34 58.29 37.9 57.7 38.14 57.34 37.92 56.92 37.92 56.13 40.64 55.34 39.79 53.91 39.79 53.91 40.45 53.45 40.84 51.79 40.84 51.15 40.57 51.13 39.95 51.74 39.55 51.74 38.57 51.15 37.92 50.32 37.92 49.62 36.35 48.75 36.86 48.27 36.5 47.58 36.5 47.22 36.86 46.47 35.85 45.66 35.85 45.37 36.36 44.51 36.36 43.89 36.96 43.89 37.81 43.47 38.15 42.52 38.15 41.98 38.87 42.36 39.88 42.87 39.88 43.66 41.28 43.86 41.97 43.86 42.62 42.58 43.97 43.67 45.09 43.02 45.74 43.23 46.05 43.2 46.57 43.16 47.3 42.59 47.62 41.7 48.51 41.7 49.15 40.9 50.69 41.14 51.94 41.14 53.01 41.61 53.31 43.09 53.31 43.89 52.3 43.93 51.69 44.6 51.1 45 51.49 45.34 51.49 46.12 53.31 46.86 51.37 47.26 51.49 47.5 51.01 48.28 50.73 48.28 50.73 48.28 50.87 48.87 51.87 49.41 51.87 49.66 51.49 50 51.49 50.51 51.87 51.3 52.51"/><polyline class="cls-2" points="52.05 9.99 52.05 7.58 51.16 6.95 49.75 6.92 49.25 7.08 49.22 6 48.16 5.47 47.31 5.58 47.07 4.15 46.55 3.37 45.62 3.59 45.29 4.13 44.49 3.24 43.69 2.61 43.95 2.15 43.43 0.94 41.13 1.61 38.46 2.68 38.23 6.47 38.13 8.03 37.48 9.2 39.23 11.68 38.98 14.73 39.52 15.95 38.89 15.95 39.27 16.63 40 16.63 40.91 16.32 41.13 16.55 42.51 16.55 44.39 17.41 46.48 17.12 48.33 19.13 49.42 17.94 49.59 16.68 49.39 15.22 51.37 14.92 51.62 12.64 52.46 11.68 52.05 9.99"/><polyline class="cls-2" points="34.17 20.6 35.93 19.77 37.02 19.77 38.04 18.47 37.61 17.45 38.52 17.45 38.91 15.95 39.54 15.95 39 14.73 39.24 11.7 37.5 9.21 35.85 10.42 33.07 10.9 30.88 12.15 30.42 13.86 31.53 14.28 30.76 14.44 29.77 15.43 28.57 15.43 28 14.86 25.89 14.86 25.09 14.4 24.24 14.4 23.98 14.64 23.1 13.12 23.53 12.17 23.08 11.82 22.59 11.82 21.55 12.23 20.23 11.46 19.86 11.46 19.86 11.9 20.24 12.28 20.24 12.77 20.03 12.98 20.45 14.39 21.39 15.69 21.39 17.27 21.39 19.53 22.34 20.2 22.34 20.59 21.39 20.59 21.61 21.53 22.22 21.92 23.05 21.27 24.01 21.7 25.01 21.69 25.61 22.17 26.34 21.79 26.34 22.18 27.02 21.79 28.4 21.79 28.49 21.37 28.9 21.37 28.9 22.24 29.43 22.96 30.23 22.96 31.2 21.99 31.83 22.53 31.82 23.28 32.8 24.04 33.1 24.04 33.63 24.58 34.18 24.57 34.18 24.28 33.8 23.43 34.08 23.15 34.55 23.07 35.06 22.56 35.06 21.52 34.17 20.6"/><polygon class="cls-2" points="46.65 25.86 45.58 24.76 44.85 25.16 44.49 24.8 44.2 25.08 43.01 25.08 43.38 24.27 42.59 23.44 41.62 23.45 40.43 23.86 40.18 22.59 39.59 22.54 38.27 20.46 38.27 19.62 38.02 18.48 37 19.77 35.91 19.77 34.15 20.61 35.04 21.52 35.04 22.56 34.53 23.08 34.07 23.16 33.79 23.44 34.17 24.28 34.17 24.57 34.46 24.87 34.16 26.57 32.81 28.53 31.78 28.9 31.78 29.49 30.64 29.05 30.66 29.94 29.8 32.6 31.1 33.78 31.1 34.53 31.94 34.53 32.67 34.08 33.24 34.33 33.24 34.99 34.15 36.22 34.46 36.65 34.46 37.4 35.85 38.3 35.85 39.27 37.2 39.27 37.76 38.86 38.97 39.15 39.25 38.6 39.55 38.87 41.48 38.87 41.96 38.87 42.5 38.15 43.45 38.15 43.87 37.81 43.87 36.96 44.49 36.36 45.35 36.36 45.65 35.85 46.45 35.85 46.45 33.97 45.94 33.53 45.94 31.99 45.35 31.57 45.62 30.63 45.26 30.05 45.7 29.61 45.7 29.05 45.17 28.3 46.14 27.76 46.14 27.3 45.92 27.09 46.65 26.51 46.65 25.86"/><polyline class="cls-2" points="17.99 28.44 19.37 27.87 20.42 27.87 21.71 26.93 22.8 27.49 23.38 25.8 24.08 25.8 23.71 23.52 24.01 23.12 23.99 21.7 23.03 21.28 22.2 21.92 21.6 21.54 21.37 20.59 19.93 20.56 19.93 19.84 19.32 19.84 19.02 20.05 19.02 20.61 18.63 20.29 18.42 20.29 18.16 20.54"/><path class="cls-2" d="M10.25,26.77l.46.46.69.14.79.92.1.24h2.39l0,.3h-1l.2.39H16l-.15.27V30l.21-.21.77-.31h.74l.45-.25v-.74m-7.93-9.39h-.8l-.13.63-.82-.82-2.2.36-.85.15v.31l-1.21.16-.29,1.83h1l1.55-.47-.44.6.87.2v.46l-.46-.2L5,22.09V23l.54-.19h.89v1.06l-.56-.24-1.55.24-.41.2,1.57.77.34,1.28h.87l.48-.32H8l.46.7h.9l.31.32h.56m7.91-6.24h-.55L17,20.05l-1.7.91-1.76-2.49-.19-.42-1.87.28-.24-.19-.54.19v1.05l-.35-.17-.28-.16"/><path class="cls-2" d="M22.9,27.22l-.1.27-1.09-.56-1.29.94H19.37L18,28.44v.74l-.45.25H16.8l-.77.31-.58.59.82,1.15h.59l.56-.38h1v.26l-.94.12v.6l-.37.36.83.28.39.61-1,1.14v.47L19,37v.78h.39l.93.76h.38l.32.31v.34h.7l.63.56.3-.3.34-.13L24,39v.42l1,0h.72l.52-.67h-.43v-1l-.44-2.47-.36,0L24.46,34h1.78v-.52h.85l.18-.31h1.27l.17.35,1.09-.89.86-2.66,0-.89,1.14.44V28.9l1-.37,1.35-2,.3-1.71-.29-.3h-.56L33.08,24h-.3l-1-.76v-.76L31.18,22l-1,1h-.79l-.53-.71v-.88h-.42l-.08.43H27l-.68.38V21.8l-.74.37-.6-.48-1,0,0,1.41-.29.4.36,2.29h-.7l-.48,1.41"/><polyline class="cls-2" points="35.85 39.27 35.85 38.29 34.46 37.4 34.46 36.65 33.24 34.99 33.24 34.33 32.67 34.08 31.94 34.52 31.1 34.52 31.1 33.78 29.8 32.6 28.71 33.49"/><polyline class="cls-2" points="27.92 61.71 27.92 62.09 28.38 62.63 28.11 62.93 28.6 62.93 28.54 64.13 27.92 65.04 26.75 66.3 26.75 67.04 26.51 67.29 26.51 67.76 26.4 67.82 26.08 68.08 25.18 68.08 24.97 68.23 24.09 67.34 24.09 66.73 22.73 66.73 20.82 65.78 20.82 65.23 20.43 65.23 20.37 65.99 19.65 65.57 20.31 64.21 19.35 63.71 18.98 64.08 18.57 63.68 18.17 63.68 17.83 63.14 18.98 62.6 19.43 61.89"/><polyline class="cls-2" points="19.43 61.89 19.56 61.7 19.58 61.65 20.05 60.79 21.47 54.27"/><polyline class="cls-2" points="24.91 47.44 25.01 48.26 24.78 48.3 24.17 47.01 23.07 45.97 22.86 45.42 22.5 45.87 21.56 52.48 22.13 51.91 22.73 52.32 22.86 52.88 22.37 52.97 21.89 52.86 21.56 53.66 21.47 54.27"/><polyline class="cls-2" points="24.91 47.44 24.77 46.75 24.24 45.93 23.3 45.1 22.08 44.34 22.08 43.58 22.63 43.58 22.56 42.99 22.84 42.99 23.04 42.6 23.04 41.49 22.59 40.75 22.19 40.67 22.19 40.39 22.94 39.78 22.93 39.38 22.97 39.27 24.02 39 24.02 39.43 25.02 39.4 25.02 39.43"/><polyline class="cls-2" points="37.17 50.34 36.82 50.5 36.82 52.16 35.13 53.69"/><polyline class="cls-2" points="25.02 39.4 25.74 39.4 26.25 38.73 25.83 38.73 25.83 37.76 25.39 35.29 25.03 35.24 24.46 33.97 26.24 33.97 26.24 33.45 27.09 33.45 27.27 33.14 28.29 33.14 28.54 33.14 28.71 33.49"/></g></svg>